<?xml version="1.0" standalone="no"?>
<!DOCTYPE svg PUBLIC "-//W3C//DTD SVG 20010904//EN"
 "http://www.w3.org/TR/2001/REC-SVG-20010904/DTD/svg10.dtd">
<svg version="1.0" xmlns="http://www.w3.org/2000/svg"
 width="512.000000pt" height="512.000000pt" viewBox="0 0 512.000000 512.000000"
 preserveAspectRatio="xMidYMid meet">
<metadata>
Created by potrace 1.16, written by Peter Selinger 2001-2019
</metadata>
<g transform="translate(0.000000,512.000000) scale(0.100000,-0.100000)"
fill="#000000" stroke="none">
<path d="M2250 4690 c-17 -5 1 -8 58 -9 48 -1 82 3 82 9 0 12 -103 12 -140 0z"/>
<path d="M2306 4576 c-5 -11 -7 -190 -3 -432 4 -227 3 -415 -1 -417 -4 -3
-154 -8 -334 -12 l-328 -8 0 56 c0 31 -4 59 -10 62 -6 4 -10 -17 -10 -54 l0
-61 -109 0 c-63 0 -112 -4 -116 -10 -4 -6 35 -10 109 -10 l116 0 0 -235 0
-235 -36 0 c-27 0 -35 -4 -31 -14 3 -7 0 -19 -6 -26 -9 -9 -9 -14 -1 -17 8 -2
5 -27 -7 -81 -11 -42 -19 -83 -19 -91 0 -29 12 -1 26 60 8 35 16 74 19 85 4
17 10 20 30 16 16 -3 25 -11 25 -23 0 -11 5 -19 10 -19 6 0 10 20 10 45 0 25
3 45 8 45 4 0 119 -9 256 -20 222 -18 270 -19 255 -6 -2 2 -119 12 -259 22
l-255 19 -3 237 -2 237 52 5 c29 3 180 7 335 10 l282 5 4 -82 3 -82 2 81 2 81
68 6 c37 4 132 7 212 7 84 0 151 5 160 11 10 7 -54 8 -212 3 l-228 -6 0 65 0
66 29 -17 c24 -13 27 -20 20 -34 -17 -31 10 -20 30 12 10 16 20 28 23 25 3 -3
10 1 16 8 16 19 -20 16 -43 -3 -32 -26 -72 23 -45 55 18 22 57 18 74 -7 12
-16 16 -18 16 -7 0 20 -32 49 -54 49 -29 0 -56 -20 -58 -43 -2 -12 -5 140 -8
338 -3 227 -8 353 -14 341z m-686 -1392 c0 -8 -10 -14 -25 -14 -27 0 -28 1
-19 23 7 18 44 10 44 -9z"/>
<path d="M3350 4525 c0 -5 7 -16 15 -25 14 -16 12 -19 -25 -45 -22 -15 -40
-32 -40 -37 0 -10 12 -4 56 29 28 21 33 22 44 8 20 -24 32 -17 15 9 -15 23
-15 25 6 40 13 8 20 19 16 22 -4 4 -16 -1 -27 -11 -19 -17 -21 -17 -40 0 -11
10 -20 14 -20 10z"/>
<path d="M1409 4459 c-12 -23 -3 -41 10 -20 6 9 20 10 47 5 46 -8 43 -2 -8 19
-36 15 -38 15 -49 -4z"/>
<path d="M2870 4186 c0 -20 -6 -25 -32 -29 l-33 -4 32 -1 c26 -2 32 -7 36 -29
l4 -28 2 28 1 27 178 0 179 0 -15 -60 c-11 -47 -19 -60 -33 -60 -11 0 -19 -4
-19 -10 0 -5 7 -10 15 -10 8 0 15 -6 15 -12 0 -16 -47 -198 -52 -203 -2 -2
-41 -7 -86 -11 -46 -4 -85 -11 -88 -15 -6 -11 18 -11 109 0 37 4 67 7 67 7 -1
-1 -7 -26 -14 -56 l-13 -55 -39 3 c-81 5 -124 14 -119 23 4 5 1 9 -4 9 -6 0
-11 -5 -11 -10 0 -11 -66 -6 -142 10 -21 4 -38 4 -38 -1 0 -8 20 -13 115 -27
l51 -7 -43 -95 c-34 -74 -43 -88 -43 -65 0 17 -5 37 -11 45 -8 11 -9 5 -5 -25
3 -22 6 -48 6 -57 0 -38 17 -14 63 90 l47 108 83 -9 c45 -5 83 -10 84 -11 2
-2 -86 -349 -90 -352 -2 -2 -122 22 -267 52 -146 30 -326 67 -400 82 l-135 28
-3 69 c-2 40 -8 73 -15 77 -17 11 -47 10 -47 -2 0 -5 9 -10 19 -10 29 0 34
-15 27 -74 l-7 -52 -54 9 c-42 8 -55 14 -55 28 0 24 -20 35 -20 12 -1 -10 -15
-27 -33 -38 -41 -26 -41 -46 1 -57 38 -10 62 3 62 32 0 15 5 16 50 7 l50 -10
0 -58 0 -58 -222 4 c-144 2 -203 1 -168 -5 30 -4 130 -8 223 -9 l167 -1 1
-102 c1 -120 5 -118 14 6 l7 88 112 -3 c71 -3 119 -9 128 -17 12 -10 21 -9 44
2 25 14 26 16 8 22 -10 4 -22 12 -26 18 -4 7 -9 5 -13 -4 -4 -12 -22 -14 -103
-9 -53 4 -109 7 -124 8 -27 1 -28 3 -28 56 0 30 2 55 3 55 5 0 694 -142 950
-196 l177 -37 2 -141 2 -141 3 138 c3 95 7 137 15 137 13 0 241 -43 246 -46 5
-3 -57 -216 -68 -237 -9 -14 -6 -19 15 -27 15 -6 33 -10 42 -10 15 0 14 -20
-3 -64 -3 -9 -2 -16 4 -16 6 0 13 13 17 30 4 16 10 32 14 34 3 3 36 -1 71 -9
36 -7 120 -23 188 -35 105 -19 122 -25 122 -41 0 -10 5 -19 10 -19 6 0 10 8
10 19 0 18 3 18 98 1 89 -16 113 -17 101 -5 -3 2 -50 12 -106 21 l-100 17 -7
86 c-4 47 -9 108 -13 135 -5 42 -4 48 9 43 12 -4 15 1 13 26 -1 19 -8 32 -16
32 -10 0 -19 33 -31 120 -9 66 -17 131 -17 144 l-1 23 185 -7 c134 -5 185 -4
185 4 0 8 -55 11 -184 11 -186 0 -221 7 -183 35 18 13 21 57 7 90 -6 15 -9 8
-9 -27 -1 -26 -5 -50 -11 -53 -5 -3 -10 -15 -10 -26 0 -19 -4 -20 -112 -13
-62 4 -115 8 -116 10 -2 1 -1 12 3 24 l7 22 15 -21 c8 -12 19 -21 24 -21 6 0
3 10 -5 21 -13 19 -13 25 0 50 7 15 14 34 14 41 -1 7 -10 -4 -21 -25 -27 -51
-35 -40 -15 19 20 60 21 57 -8 50 -42 -10 -56 2 -56 49 0 66 10 105 28 105 13
0 12 3 -4 14 -10 8 -20 10 -22 5 -2 -5 -12 -9 -23 -9 -10 0 -19 -4 -19 -10 0
-5 7 -7 15 -3 14 5 15 -6 13 -73 -3 -79 -3 -79 -33 -85 l-30 -7 30 -2 c17 -1
46 -1 67 0 l36 1 -17 -68 c-16 -62 -20 -68 -44 -68 -38 -1 -43 -12 -8 -20 26
-6 29 -9 21 -29 -4 -12 -20 -69 -35 -127 -15 -57 -29 -105 -30 -107 -3 -3
-175 29 -242 45 -22 5 -23 9 -23 129 0 68 -4 124 -8 124 -5 0 -7 -56 -4 -124
l5 -124 -144 29 c-79 16 -149 31 -155 34 -8 2 -1 43 22 131 18 69 35 128 36
129 3 2 214 31 376 51 23 3 42 10 42 16 0 14 -81 90 -89 83 -3 -3 12 -20 33
-37 43 -35 38 -46 -19 -49 -34 -1 -303 47 -313 56 -2 2 1 28 8 58 l11 54 52 7
c29 3 69 6 89 6 20 0 40 5 44 11 6 10 -92 6 -153 -7 -15 -3 -23 0 -23 8 1 22
46 197 52 204 4 3 162 -20 352 -52 294 -50 345 -61 349 -76 3 -10 9 -18 15
-18 10 0 8 33 -8 163 -5 45 -10 87 -10 95 0 7 -4 11 -8 8 -4 -2 -2 -51 4 -108
6 -57 11 -104 10 -105 -2 -2 -627 102 -677 112 l-27 6 14 52 c26 98 40 91
-170 83 -179 -7 -184 -7 -179 12 2 11 0 23 -6 26 -7 5 -11 -2 -11 -18z m435
-570 c82 -16 75 -20 -60 -36 -55 -6 -107 -13 -116 -16 -14 -4 -15 1 -6 39 l10
44 51 -9 c28 -4 83 -14 121 -22z m-1227 -169 c3 -12 -4 -17 -22 -17 -32 0 -42
16 -19 29 23 13 37 9 41 -12z m1873 -35 c8 -8 43 -301 38 -307 -4 -3 -308 51
-336 60 -10 3 18 136 52 245 4 13 24 15 122 12 65 -2 121 -7 124 -10z m-136
-294 c94 -18 173 -36 176 -41 4 -5 10 -50 13 -101 4 -50 10 -106 13 -125 l6
-34 -49 6 c-27 4 -113 19 -190 34 -122 23 -141 29 -137 43 3 10 0 21 -6 24 -7
5 -11 -1 -11 -14 0 -19 -4 -21 -27 -15 -16 3 -31 9 -34 13 -7 8 62 242 71 242
3 0 82 -14 175 -32z"/>
<path d="M1321 4178 c-1 -25 -5 -28 -37 -28 -21 0 -33 -4 -29 -10 3 -5 19 -10
34 -10 20 0 30 -7 38 -27 l11 -28 1 32 1 32 63 4 62 3 -67 2 c-64 2 -67 3 -71
30 l-4 27 -2 -27z"/>
<path d="M1817 4182 c-22 -24 -22 -78 -1 -86 27 -10 99 -7 112 6 18 18 14 56
-8 78 -26 26 -81 26 -103 2z m81 -8 c13 -9 22 -26 22 -40 0 -24 -2 -25 -52
-22 -45 3 -53 6 -56 25 -2 13 5 27 20 37 28 20 38 20 66 0z"/>
<path d="M1860 4135 c0 -8 5 -15 10 -15 6 0 10 7 10 15 0 8 -4 15 -10 15 -5 0
-10 -7 -10 -15z"/>
<path d="M3373 4188 c-2 -5 114 -7 259 -6 292 2 273 6 -45 10 -115 2 -211 0
-214 -4z"/>
<path d="M1510 4110 c-6 -11 -8 -30 -5 -42 4 -15 -15 -71 -55 -166 -34 -79
-59 -146 -56 -149 3 -4 13 11 22 33 9 21 36 85 60 141 24 56 44 107 44 113 0
7 8 9 23 5 12 -4 26 -8 32 -9 11 -1 7 51 -6 77 -13 23 -46 22 -59 -3z m48 -28
c2 -12 -1 -22 -6 -22 -15 0 -34 28 -27 40 10 17 30 6 33 -18z"/>
<path d="M4161 4107 c-67 -39 -67 -141 -1 -180 33 -20 50 -21 85 -5 55 25 73
116 33 163 -28 31 -83 41 -117 22z m89 -17 c23 -12 40 -61 33 -92 -9 -37 -43
-68 -75 -68 -71 0 -107 105 -52 149 29 23 64 27 94 11z"/>
<path d="M4202 4051 c2 -7 7 -12 11 -12 12 1 9 15 -3 20 -7 2 -11 -2 -8 -8z"/>
<path d="M2910 3761 c0 -6 4 -13 10 -16 6 -3 7 1 4 9 -7 18 -14 21 -14 7z"/>
<path d="M1340 3585 l0 -135 -70 0 -70 0 0 120 c0 73 -4 120 -10 120 -6 0 -10
-47 -10 -120 l0 -119 -132 -4 -133 -3 133 -2 132 -2 0 -165 0 -164 -142 -3
-143 -3 143 -9 142 -9 0 -156 0 -156 -165 3 c-110 2 -165 -1 -165 -8 0 -6 57
-10 165 -10 l165 0 0 -255 0 -255 -165 0 -165 0 5 197 c3 121 1 188 -4 173 -5
-14 -9 -103 -10 -197 -1 -158 -3 -173 -18 -173 -17 -1 -17 -2 -2 -13 9 -7 19
-21 22 -32 3 -15 5 -13 6 8 l1 28 173 -3 172 -3 -3 263 -3 262 71 0 71 0 -6
-227 c-3 -126 -8 -256 -11 -290 -2 -35 -1 -63 4 -63 11 0 22 219 22 428 l0
155 148 -8 c81 -4 148 -8 149 -9 2 -1 -1 -17 -6 -34 -6 -18 -6 -32 -1 -32 5 0
12 16 16 35 l6 35 92 2 c50 1 71 3 46 5 -25 1 -64 5 -87 8 l-41 6 25 80 c13
44 23 85 21 91 -2 6 -16 -30 -31 -80 l-28 -92 -149 0 -150 0 0 60 c0 33 -4 60
-10 60 -6 0 -10 -27 -10 -61 l0 -62 -61 6 c-33 3 -62 7 -64 9 -3 2 -7 72 -11
156 l-7 152 114 0 114 0 -3 66 c-3 47 0 69 9 75 10 6 10 11 -1 24 -13 15 -15
15 -22 -6 -5 -12 -6 -49 -2 -81 l7 -58 -102 0 c-55 0 -101 3 -102 8 -5 59 -6
220 -2 265 l6 57 69 0 69 0 -3 -160 c-2 -104 1 -159 7 -157 6 2 11 42 11 88 1
46 2 116 3 156 l1 72 53 4 52 3 -52 2 -53 2 0 135 c0 83 -4 135 -10 135 -6 0
-10 -52 -10 -135z"/>
<path d="M2563 3693 c9 -2 25 -2 35 0 9 3 1 5 -18 5 -19 0 -27 -2 -17 -5z"/>
<path d="M2570 3665 c-10 -12 -10 -21 -2 -40 14 -31 46 -32 66 -3 14 20 14 24
-1 40 -20 22 -46 23 -63 3z m40 -16 c0 -5 5 -7 10 -4 16 10 12 -11 -5 -25 -8
-6 -19 -9 -25 -5 -16 10 -12 45 5 45 8 0 15 -5 15 -11z"/>
<path d="M4087 3652 c-36 -40 -4 -117 46 -110 31 4 50 48 36 84 -17 47 -53 58
-82 26z m63 -23 c7 -11 9 -32 6 -45 -11 -41 -66 -28 -66 16 0 4 7 7 16 6 9 0
19 5 22 13 3 9 -1 11 -17 6 -11 -3 -21 -2 -21 3 0 29 45 30 60 1z"/>
<path d="M3550 3585 c0 -8 5 -15 10 -15 6 0 10 7 10 15 0 8 -4 15 -10 15 -5 0
-10 -7 -10 -15z"/>
<path d="M4183 3191 c-99 -32 -144 -51 -117 -51 24 1 247 77 239 81 -6 3 -60
-10 -122 -30z"/>
<path d="M2606 3105 c-4 -15 -4 -95 0 -178 l7 -152 -147 3 c-93 3 -146 1 -146
-6 0 -6 55 -11 134 -14 74 -2 139 -7 143 -12 4 -4 10 -42 13 -84 5 -71 7 -77
28 -80 l22 -3 -2 273 c-3 270 -3 273 -24 276 -16 2 -23 -4 -28 -23z"/>
<path d="M2924 3110 c-36 -24 -87 -111 -82 -143 5 -35 31 -26 51 18 23 48 54
84 84 96 28 10 78 -6 90 -29 4 -9 8 -117 8 -239 0 -164 3 -225 13 -234 26 -28
34 8 40 183 2 96 1 205 -3 243 -6 59 -11 73 -37 97 -25 23 -39 28 -82 28 -34
0 -61 -7 -82 -20z"/>
<path d="M660 3090 c-24 -24 -25 -32 -5 -70 19 -37 34 -38 68 -2 32 33 34 53
9 75 -25 22 -48 21 -72 -3z m70 -23 c0 -29 -34 -62 -55 -54 -15 6 -21 57 -8
70 3 4 19 7 35 7 23 0 28 -4 28 -23z"/>
<path d="M2232 3038 c-9 -9 -12 -69 -12 -219 0 -114 3 -214 6 -223 9 -24 43
-20 49 7 3 12 4 116 3 232 -3 178 -5 210 -18 213 -9 1 -21 -3 -28 -10z"/>
<path d="M1772 2988 c-17 -17 -15 -53 3 -68 36 -30 97 19 75 60 -12 23 -59 27
-78 8z m63 -28 c0 -20 -6 -26 -27 -28 -24 -3 -28 0 -28 21 0 30 9 39 35 35 14
-2 20 -10 20 -28z"/>
<path d="M1796 2973 c-11 -11 -6 -23 9 -23 8 0 15 4 15 9 0 13 -16 22 -24 14z"/>
<path d="M2041 2978 c-5 -13 -32 -63 -60 -112 -29 -49 -49 -91 -46 -94 6 -7 2
-13 59 88 27 47 55 95 63 107 10 14 11 23 4 28 -6 3 -15 -4 -20 -17z"/>
<path d="M1390 2962 c0 -11 101 -94 108 -88 4 5 -26 33 -85 79 -13 10 -23 14
-23 9z"/>
<path d="M1220 2878 c0 -7 6 -20 12 -26 10 -10 10 -17 0 -32 -16 -26 -15 -30
3 -30 8 0 14 6 13 13 -2 6 2 11 8 10 19 -3 11 29 -13 55 -15 16 -23 20 -23 10z"/>
<path d="M3280 2791 c-36 -3 -60 -9 -55 -13 12 -8 182 6 192 16 7 7 -37 6
-137 -3z"/>
<path d="M3506 2738 c-17 -33 -71 -138 -121 -234 -51 -96 -88 -174 -84 -174 5
0 21 24 35 53 15 28 27 53 28 54 1 1 82 -5 181 -12 99 -8 192 -15 208 -15 22
0 27 -4 27 -26 0 -14 4 -23 10 -19 6 3 10 15 10 26 0 10 5 19 12 19 9 0 9 3 0
12 -14 14 -17 268 -3 268 15 0 22 32 10 46 -14 17 -51 18 -66 3 -12 -12 4 -69
19 -69 4 0 8 -54 8 -120 0 -113 -1 -120 -20 -120 -13 0 -27 15 -44 48 -22 43
-176 316 -179 318 -1 1 -15 -26 -31 -58z m62 -24 c13 -26 22 -47 20 -48 -2 -2
-20 -13 -40 -25 -45 -27 -47 -42 -12 -70 31 -24 66 -27 83 -7 9 11 7 22 -10
50 -11 20 -17 36 -12 36 11 0 127 -210 120 -217 -4 -3 -75 0 -159 6 -84 6
-159 11 -166 11 -8 0 -12 6 -10 13 7 28 149 297 156 297 4 0 18 -21 30 -46z
m237 15 c4 -5 -1 -19 -11 -30 -16 -18 -19 -18 -27 -4 -14 27 23 60 38 34z
m-210 -121 c22 -53 -1 -64 -50 -26 l-28 22 23 18 c31 25 39 23 55 -14z"/>
<path d="M3729 2781 c-13 -11 -20 -23 -16 -28 5 -4 13 0 18 10 6 9 17 17 24
17 8 0 15 5 15 10 0 15 -15 12 -41 -9z"/>
<path d="M2733 2743 c-19 -7 -16 -44 7 -80 24 -40 87 -73 140 -73 53 0 120 34
120 60 0 24 -17 25 -56 5 -63 -33 -140 -10 -168 49 -18 39 -25 45 -43 39z"/>
<path d="M2025 2710 c-4 -7 -3 -16 3 -22 14 -14 45 -2 40 15 -6 16 -34 21 -43
7z"/>
<path d="M4570 2705 c-19 -23 -3 -55 28 -55 23 -1 25 -2 10 -11 -10 -5 -18
-15 -18 -22 1 -19 50 42 50 62 0 37 -46 55 -70 26z m50 -18 c0 -8 -3 -17 -6
-20 -10 -9 -46 12 -39 24 9 14 45 11 45 -4z"/>
<path d="M3930 2665 c0 -5 21 -31 47 -57 l46 -47 -27 -38 c-15 -21 -37 -50
-48 -65 -12 -15 -20 -30 -17 -32 3 -3 27 23 54 58 l50 63 129 -134 c71 -73
131 -131 134 -129 2 3 -52 65 -122 137 -69 72 -126 136 -126 141 0 6 14 28 31
50 17 21 29 41 26 44 -3 3 -20 -15 -39 -39 l-33 -45 -52 51 c-29 28 -53 47
-53 42z"/>
<path d="M1544 2444 c-58 -121 -117 -243 -130 -272 -24 -53 -25 -53 -64 -51
-22 2 -39 -1 -37 -6 1 -6 17 -9 35 -7 38 4 38 4 13 -51 -28 -61 -51 -118 -50
-126 0 -3 9 12 20 34 l18 40 1 -157 0 -158 -352 0 c-193 0 -348 -3 -344 -7 4
-5 163 -6 352 -4 l344 3 0 -85 c0 -66 -3 -86 -15 -91 -8 -3 -15 -13 -15 -21 0
-9 3 -14 8 -12 4 3 8 -5 8 -18 2 -20 -4 -23 -43 -29 -25 -3 -50 -3 -56 1 -6 3
-7 1 -3 -5 4 -7 14 -12 23 -12 9 0 33 -19 55 -42 l38 -41 0 41 0 42 317 0
c174 0 314 2 312 4 -8 9 -171 15 -391 16 -183 0 -228 3 -228 13 0 9 24 18 67
26 37 7 184 39 326 72 143 33 262 58 264 55 8 -8 94 -439 88 -444 -2 -3 -42
-11 -87 -19 -207 -34 -464 -86 -473 -95 -12 -13 -11 -12 273 42 122 24 225 41
228 38 3 -3 2 -17 -1 -31 -5 -19 -17 -28 -43 -35 l-37 -10 32 -1 c39 -1 63 21
63 60 0 26 3 29 30 29 23 0 30 -4 30 -20 0 -11 5 -20 10 -20 6 0 8 10 4 24 -6
24 13 36 63 36 12 0 24 4 28 9 6 11 -25 81 -37 81 -12 0 -10 -8 9 -36 14 -22
14 -27 2 -35 -8 -5 -28 -9 -45 -9 l-30 0 -18 93 c-10 50 -20 103 -23 117 l-5
25 163 -3 162 -3 -6 30 c-5 23 -2 33 11 40 15 9 15 10 -3 11 -16 0 -24 13 -39
63 -10 34 -21 56 -23 49 -3 -7 2 -33 11 -59 9 -25 15 -47 13 -48 -1 -1 -18 -6
-37 -12 l-35 -11 41 -1 c33 -1 43 -5 47 -21 3 -11 2 -22 -1 -23 -4 -2 -75 -2
-158 1 l-150 4 -18 86 c-10 47 -20 90 -22 96 -3 7 29 19 81 30 47 10 88 23 91
27 7 12 7 12 -87 -11 -45 -10 -86 -17 -92 -13 -5 3 -12 1 -16 -4 -4 -8 -394
-100 -628 -149 l-23 -4 0 275 c0 262 1 276 22 320 l22 45 62 0 c35 0 66 -4 69
-10 7 -12 58 -13 69 -2 4 4 22 12 39 19 l32 11 -32 1 c-26 1 -33 5 -33 21 0
26 -34 44 -59 31 -10 -6 -26 -22 -35 -36 -14 -21 -24 -25 -61 -25 -25 0 -45 2
-45 5 0 7 218 468 241 508 6 11 8 21 5 24 -3 3 -53 -93 -112 -213z m51 -309
c0 -23 -5 -31 -21 -33 -30 -4 -48 21 -34 48 18 33 55 23 55 -15z m-255 -752
c0 -25 0 -26 -20 -8 -11 10 -20 22 -20 27 0 4 9 8 20 8 15 0 20 -7 20 -27z"/>
<path d="M1560 2140 c0 -5 5 -10 10 -10 6 0 10 5 10 10 0 6 -4 10 -10 10 -5 0
-10 -4 -10 -10z"/>
<path d="M1433 2603 c-31 -12 0 -93 36 -93 32 0 45 25 30 60 -8 16 -17 30 -21
30 -3 0 -12 2 -20 4 -7 3 -19 2 -25 -1z m37 -22 c0 -12 -28 -22 -34 -12 -3 5
-3 11 1 15 9 9 33 7 33 -3z m30 -29 c0 -20 -23 -31 -43 -20 -16 8 -17 12 -6
19 18 11 49 12 49 1z"/>
<path d="M4348 2508 c-22 -16 -39 -63 -32 -83 4 -8 18 -15 34 -15 16 0 30 -5
32 -11 2 -6 10 1 18 16 13 24 13 28 0 39 -8 6 -15 22 -15 35 0 29 -15 36 -37
19z m22 -23 c0 -8 -7 -15 -15 -15 -16 0 -20 12 -8 23 11 12 23 8 23 -8z m18
-47 c-3 -7 -15 -13 -28 -13 -13 0 -25 6 -27 13 -3 8 6 12 27 12 21 0 30 -4 28
-12z"/>
<path d="M1010 2450 c0 -13 8 -53 26 -129 11 -51 14 -9 3 55 -10 62 -29 111
-29 74z"/>
<path d="M3264 2140 c5 -185 11 -309 18 -315 6 -7 8 78 3 265 -8 314 -9 338
-20 348 -4 4 -4 -130 -1 -298z"/>
<path d="M1640 2399 c0 -6 52 -9 128 -8 l127 1 0 -173 c0 -195 15 -282 51
-306 63 -41 199 -23 265 36 38 34 42 42 47 94 7 90 -18 116 -151 152 -62 17
-83 43 -71 90 11 44 50 70 107 70 29 -1 67 -5 85 -9 28 -8 32 -6 32 12 0 43
-148 62 -208 27 -35 -21 -72 -81 -72 -118 0 -67 33 -99 127 -124 85 -21 103
-36 103 -81 0 -93 -107 -143 -235 -111 -40 10 -44 14 -54 54 -16 64 -13 222 5
304 9 39 13 78 10 86 -5 13 -28 16 -151 14 -84 0 -145 -5 -145 -10z"/>
<path d="M2435 2396 c-66 -30 -107 -105 -106 -195 1 -142 104 -291 201 -291
83 0 136 106 128 255 -3 66 -10 94 -34 141 -16 32 -41 67 -55 77 -34 24 -96
31 -134 13z m96 -52 c106 -54 102 -370 -4 -382 -22 -3 -36 5 -61 31 -96 102
-114 275 -35 341 35 30 58 32 100 10z"/>
<path d="M3065 2393 c-108 -7 -109 -8 -124 -162 -12 -115 -3 -158 35 -167 35
-9 234 45 234 63 0 24 -25 25 -108 4 -114 -30 -122 -29 -122 14 l0 35 68 0
c80 0 112 8 112 26 0 11 -20 14 -86 14 l-87 0 6 56 c3 31 9 59 12 62 3 4 48 9
100 12 91 5 124 17 111 39 -7 11 -41 11 -151 4z"/>
<path d="M2716 2343 c-10 -37 -11 -392 -1 -402 14 -14 175 39 175 57 0 22 -29
25 -73 8 -74 -28 -71 -36 -64 157 5 127 3 177 -5 185 -17 17 -26 15 -32 -5z"/>
<path d="M3489 2290 c-4 -23 -9 -25 -69 -31 l-65 -6 64 -1 c41 -1 68 -7 75
-16 7 -9 18 -11 31 -6 18 8 18 9 2 9 -10 1 -15 6 -12 11 3 6 31 10 61 10 30 0
54 4 54 8 0 5 -27 6 -60 4 -56 -4 -60 -3 -69 19 l-9 24 -3 -25z"/>
<path d="M3948 2243 c-27 -31 -32 -63 -13 -83 10 -11 22 -17 26 -14 5 3 9 1 9
-5 0 -19 41 -23 65 -7 18 12 25 25 25 49 0 62 -75 101 -112 60z m79 -17 c24
-21 26 -27 18 -52 -6 -16 -18 -30 -26 -32 -17 -3 -49 22 -49 39 0 14 28 11 33
-3 3 -8 6 -7 6 4 1 9 -3 19 -8 22 -18 11 -41 -6 -41 -31 0 -13 -4 -21 -10 -18
-19 12 -11 63 12 79 29 21 32 20 65 -8z"/>
<path d="M1795 2225 c-5 -16 -29 -104 -54 -195 -46 -162 -47 -165 -75 -167
-56 -4 -86 -62 -50 -97 32 -33 114 -11 114 29 0 8 -5 25 -11 38 -9 20 -2 57
40 212 29 104 50 193 48 199 -3 6 -8 -2 -12 -19z m-115 -382 c-1 -16 -28 -43
-44 -43 -19 0 -21 21 -4 38 13 13 48 16 48 5z m30 -43 c0 -20 -6 -31 -21 -35
-30 -10 -32 -2 -13 38 20 41 34 40 34 -3z m-65 -20 c-3 -5 -10 -10 -16 -10 -5
0 -9 5 -9 10 0 6 7 10 16 10 8 0 12 -4 9 -10z"/>
<path d="M3604 2075 c10 -52 17 -97 15 -100 -3 -2 -68 -21 -144 -42 -77 -21
-133 -39 -124 -41 9 -2 75 12 147 31 l131 35 11 -52 c6 -28 14 -72 17 -98 l6
-48 -67 0 c-37 0 -66 -4 -66 -10 0 -6 30 -10 69 -10 l69 0 11 -63 c6 -35 11
-85 11 -111 0 -40 -3 -47 -17 -42 -65 19 -416 112 -553 146 -91 22 -182 45
-202 51 l-38 10 -1 102 -2 102 -9 -94 c-5 -52 -11 -97 -13 -100 -5 -4 -218 49
-258 64 -9 4 -17 3 -17 -2 0 -5 46 -22 103 -37 56 -16 119 -33 139 -39 l37
-10 -5 -76 c-2 -42 -7 -104 -10 -138 l-5 -61 -57 19 c-74 26 -93 18 -22 -9
l55 -21 -157 0 c-98 -1 -158 -5 -158 -11 0 -6 63 -10 170 -10 l170 0 0 -23 c0
-21 -11 -25 -250 -71 -137 -27 -248 -52 -245 -56 2 -4 111 15 242 41 131 27
242 49 246 49 5 0 6 -48 2 -106 -6 -78 -5 -105 4 -100 6 4 11 35 11 75 0 37 3
95 6 128 l7 60 46 -9 c51 -9 191 -47 205 -55 4 -3 2 -9 -5 -14 -11 -7 -10 -9
4 -9 9 0 17 4 17 9 0 9 60 -8 433 -126 114 -36 211 -63 214 -59 3 3 0 8 -8 10
-71 24 -395 126 -563 177 l-209 64 329 5 329 5 -205 7 c-113 5 -285 8 -382 8
-97 0 -183 3 -192 6 -18 7 -20 45 -10 192 6 75 10 92 23 92 15 0 408 -100 671
-171 63 -18 120 -38 126 -46 7 -8 14 -10 15 -4 3 6 20 6 51 0 l48 -11 -15 -28
c-8 -16 -15 -37 -14 -47 0 -10 10 1 21 25 17 38 23 43 44 38 13 -4 24 -2 24 3
0 5 -11 12 -24 15 -25 6 -25 6 -9 51 16 50 16 49 44 35 13 -8 19 -7 19 0 0 6
-7 13 -15 16 -8 4 -15 11 -15 17 0 24 44 117 56 117 6 0 31 -7 54 -15 24 -8
45 -13 48 -10 3 2 -4 8 -14 11 -10 4 -34 13 -53 20 -18 8 -38 14 -43 14 -5 0
-22 -29 -38 -65 -28 -63 -31 -65 -52 -54 -13 6 -31 18 -41 27 -9 8 -20 13 -23
10 -4 -5 39 -42 74 -64 5 -4 -19 -77 -28 -87 -4 -5 -28 -5 -54 -2 l-46 7 1 57
c1 52 -6 110 -18 154 -4 17 1 18 56 16 33 -1 61 2 61 6 0 5 -17 8 -38 7 -21
-2 -49 1 -64 7 -21 8 -26 16 -26 43 0 18 -6 61 -15 95 -8 35 -11 65 -7 68 5 3
96 28 202 56 106 27 200 52 209 54 14 5 15 -17 11 -197 -3 -135 -8 -206 -16
-210 -8 -6 -8 -10 1 -16 7 -4 14 -38 16 -77 l3 -70 2 73 2 72 114 0 c66 0 117
4 121 10 4 6 -37 10 -116 10 l-122 0 6 98 c4 53 7 147 7 208 l0 111 41 12 c22
7 43 19 46 27 8 22 -5 30 -20 13 -6 -9 -25 -21 -40 -27 -27 -11 -28 -11 -25
10 2 14 10 23 20 23 10 0 23 6 30 13 9 9 9 12 -3 12 -24 0 -57 -29 -61 -53 -3
-22 -24 -29 -415 -131 -24 -7 -23 -9 -48 107 -9 42 -20 77 -24 77 -4 0 2 -43
13 -95z"/>
<path d="M850 2085 c-14 -17 -7 -57 16 -79 20 -21 26 -20 58 5 19 15 26 30 26
55 0 34 -1 34 -44 34 -26 0 -48 -6 -56 -15z m80 -10 c0 -11 -11 -15 -37 -15
-36 1 -37 2 -19 15 26 19 56 19 56 0z m0 -34 c0 -15 -28 -33 -46 -29 -29 5
-27 26 3 31 15 2 31 5 36 6 4 0 7 -3 7 -8z"/>
<path d="M2290 1975 c0 -22 4 -26 23 -23 14 2 22 10 22 23 0 13 -8 21 -22 23
-19 3 -23 -1 -23 -23z"/>
<path d="M2970 1916 c0 -33 148 -69 214 -52 44 11 32 36 -16 37 -41 0 -95 8
-165 24 -27 6 -33 4 -33 -9z"/>
<path d="M1235 1870 c-21 -22 -25 -30 -13 -30 9 0 30 -12 47 -26 l31 -26 0 23
c0 26 -21 89 -30 89 -4 0 -19 -13 -35 -30z m44 -20 l10 -30 -24 17 c-17 13
-20 21 -13 31 14 16 15 16 27 -18z"/>
<path d="M2686 1674 c-18 -18 -20 -30 -6 -39 6 -3 10 3 10 14 0 28 40 29 47 1
3 -11 9 -20 14 -20 13 0 11 13 -7 38 -18 26 -37 28 -58 6z"/>
<path d="M967 1574 c-9 -9 -9 -108 -1 -117 9 -8 82 35 89 52 8 20 -24 51 -51
51 -12 0 -24 5 -26 11 -2 5 -7 7 -11 3z m57 -40 c20 -20 20 -34 0 -34 -8 0
-12 5 -9 10 3 6 1 10 -4 10 -6 0 -11 -9 -11 -19 0 -11 -4 -23 -10 -26 -6 -4
-10 8 -10 29 0 19 6 37 13 39 6 3 13 6 14 6 1 1 9 -6 17 -15z"/>
<path d="M1305 1521 c-6 -11 9 -23 19 -14 9 9 7 23 -3 23 -6 0 -12 -4 -16 -9z"/>
<path d="M1195 1429 c-4 -6 -5 -13 -2 -16 7 -7 27 6 27 18 0 12 -17 12 -25 -2z"/>
<path d="M3250 1376 c0 -9 5 -16 10 -16 6 0 10 4 10 9 0 6 -4 13 -10 16 -5 3
-10 -1 -10 -9z"/>
<path d="M2280 1224 c0 -8 5 -12 10 -9 6 4 8 11 5 16 -9 14 -15 11 -15 -7z"/>
<path d="M4044 1226 c-3 -9 -3 -23 0 -31 8 -22 48 0 44 23 -4 22 -36 28 -44 8z
m27 -9 c-1 -12 -15 -9 -19 4 -3 6 1 10 8 8 6 -3 11 -8 11 -12z"/>
<path d="M4030 1172 c0 -13 62 -22 75 -11 5 5 -1 9 -17 9 -15 0 -33 3 -42 6
-9 3 -16 2 -16 -4z"/>
<path d="M2382 1134 c-24 -17 -30 -54 -9 -54 8 0 19 -11 25 -25 13 -29 43 -33
66 -9 22 22 20 38 -10 73 -29 35 -40 37 -72 15z m38 -19 c-35 -20 -57 -20 -40
0 7 8 24 15 39 15 l26 -1 -25 -14z m40 -39 c0 -25 -27 -43 -43 -27 -14 14 2
51 24 51 13 0 19 -7 19 -24z"/>
<path d="M3552 1138 c-7 -7 -12 -24 -12 -38 0 -32 17 -50 45 -50 22 0 65 38
65 57 0 35 -71 58 -98 31z m34 -7 c-3 -4 6 -6 19 -3 20 3 25 0 25 -17 0 -11
-12 -28 -26 -38 -25 -16 -27 -16 -40 2 -17 23 -18 37 -2 53 14 14 32 16 24 3z"/>
<path d="M3575 1101 c-3 -5 -1 -12 5 -16 5 -3 10 1 10 9 0 18 -6 21 -15 7z"/>
<path d="M4086 1114 c-71 -13 -134 -29 -140 -35 -8 -7 -4 -9 14 -5 67 14 191
36 238 42 28 4 52 10 52 15 0 12 -15 11 -164 -17z"/>
<path d="M3398 1089 c-42 -24 -7 -79 40 -63 32 11 39 35 17 58 -19 18 -33 20
-57 5z m52 -28 c0 -25 -30 -36 -48 -17 -19 18 -7 36 24 36 17 0 24 -6 24 -19z"/>
<path d="M3850 1090 c0 -5 4 -10 9 -10 6 0 13 5 16 10 3 6 -1 10 -9 10 -9 0
-16 -4 -16 -10z"/>
<path d="M2817 1073 c-4 -3 -7 -16 -8 -27 0 -20 -1 -20 -10 2 -7 19 -15 23
-41 20 -25 -2 -35 -9 -42 -31 -13 -37 2 -61 41 -65 36 -4 58 19 67 71 7 37 5
43 -7 30z m-37 -28 c10 -12 9 -15 -7 -15 -13 0 -19 -7 -19 -20 1 -23 -15 -27
-29 -6 -6 10 -4 21 9 35 23 25 30 26 46 6z m6 -53 c-18 -16 -18 -16 -6 6 6 13
14 21 18 18 3 -4 -2 -14 -12 -24z"/>
<path d="M1734 1038 c3 -7 20 -59 37 -115 18 -57 37 -103 42 -103 5 0 7 6 4
13 -2 6 -19 58 -37 115 -18 56 -37 102 -42 102 -5 0 -7 -6 -4 -12z"/>
<path d="M1053 900 c-27 -11 -39 -51 -23 -79 12 -24 68 -29 88 -9 20 20 14 65
-10 82 -25 18 -25 18 -55 6z m57 -29 c13 -26 3 -50 -26 -57 -30 -8 -44 2 -44
30 0 44 50 63 70 27z"/>
<path d="M1070 850 c0 -5 5 -10 10 -10 6 0 10 5 10 10 0 6 -4 10 -10 10 -5 0
-10 -4 -10 -10z"/>
</g>
</svg>