<?xml version="1.0"?>
<svg xmlns:rdf="http://www.w3.org/1999/02/22-rdf-syntax-ns#" xmlns="http://www.w3.org/2000/svg" xmlns:cc="http://creativecommons.org/ns#" xmlns:xlink="http://www.w3.org/1999/xlink" xmlns:dc="http://purl.org/dc/elements/1.1/" xmlns:svg="http://www.w3.org/2000/svg" id="svg11029" viewBox="0 0 800 600" version="1.1">
  <defs id="defs11031">
    <linearGradient id="linearGradient2896-5" y2="1085.8" gradientUnits="userSpaceOnUse" x2="1078.7" gradientTransform="matrix(1.5709 0 0 1.5532 -1286.3 -1097.1)" y1="709.84" x1="1078.7">
      <stop id="stop10729-2" stop-color="#f9f8f9" offset="0"/>
      <stop id="stop10731-6" stop-color="#f9f8f9" stop-opacity="0" offset="1"/>
    </linearGradient>
    <linearGradient id="linearGradient2893-0" y2="709.84" gradientUnits="userSpaceOnUse" x2="1324.2" gradientTransform="matrix(1.5709 0 0 1.5532 -1286.3 -1097.1)" y1="1004.1" x1="968.66">
      <stop id="stop10954-6" stop-color="#ececa3" offset="0"/>
      <stop id="stop10956-4" stop-color="#ececa3" stop-opacity="0" offset="1"/>
    </linearGradient>
    <linearGradient id="linearGradient3041-7" y2="656.59" gradientUnits="userSpaceOnUse" x2="862.29" gradientTransform="translate(-144.29 102.14)" y1="656.59" x1="816.64">
      <stop id="stop10729-7" stop-color="#f9f8f9" offset="0"/>
      <stop id="stop10731-1" stop-color="#f9f8f9" stop-opacity="0" offset="1"/>
    </linearGradient>
    <linearGradient id="linearGradient3292" y2="279.86" gradientUnits="userSpaceOnUse" x2="84.464" gradientTransform="matrix(1.5709 0 0 1.5532 -48.083 -340.43)" y1="213.5" x1="60.162">
      <stop id="stop10796-3" offset="0"/>
      <stop id="stop10798-3" stop-opacity="0" offset="1"/>
    </linearGradient>
    <pattern id="cloth_bitmap" width="181" patternUnits="userSpaceOnUse" height="181"/>
  </defs>
  <g id="layer2">
    <g id="g3045" transform="matrix(1.0022 0 0 1.0114 1.4207 3.6284)">
      <rect id="rect10900" opacity=".8383" ry="62.757" height="577.34" width="764.83" stroke="#fff2f2" y="8.6406" x="25.782" stroke-width="6.5885" fill="url(#linearGradient2896-5)"/>
      <rect id="rect10838" ry="62.757" height="577.34" width="764.83" stroke="#e5e18d" y="8.6406" x="25.782" stroke-width="6.5885" fill="url(#linearGradient2893-0)"/>
      <rect id="rect10902" opacity="0" ry="62.757" height="577.34" width="764.83" y="8.6406" x="25.782"/>
    </g>
  </g>
  <g id="layer4">
    <g id="g2917" stroke="#000" stroke-width="3.8128" transform="translate(-13.204 -4.3615)">
      <path id="path2899" d="m280.66 206.64h16.961c12.389 0 19.469 6.708 19.469 18.957s-7.0796 19.103-19.469 19.103h-16.961v-38.061m-16.961-13.124v106.31h16.961v-41.998h16.961c25.221 0 38.348-11.083 38.348-32.228 0-20.999-13.127-32.082-38.348-32.082h-33.923"/>
      <path id="path2901" d="m395.41 307.12 35.25-87.058h-16.519l-24.189 61.393-24.336-61.393h-16.519l32.448 78.163-2.2124 5.6872c-2.5073 5.9789-4.5722 9.9162-6.4896 11.52-1.6224 1.7499-4.1298 2.479-7.2271 2.479h-8.997v12.249h11.799c6.3421 0 11.652-1.3124 15.487-4.229 3.8348-2.9165 7.6695-9.0412 11.504-18.812"/>
      <path id="path2903" d="m464.73 197.46h-15.929v22.603h-9.4394v11.229h9.4394v41.852c0 10.062 1.9174 17.062 5.8996 20.853 4.1297 3.9373 11.652 5.833 22.271 5.833h14.749v-12.249h-14.749c-4.8672 0-7.9645-0.87496-9.5869-2.6249-1.7699-1.7499-2.6548-5.5414-2.6548-11.812v-41.852h26.991v-11.229h-26.991v-22.603"/>
      <path id="path2905" d="m579.62 251.56c0-22.311-10.177-33.977-29.646-33.977-10.767 0-19.026 4.8123-25.073 14.145v-42.727h-15.487v110.83h15.487v-45.206c0-14.874 8.407-24.061 22.124-24.061 10.767 0 16.372 6.9997 16.372 21.436v47.831h16.224v-48.268"/>
      <path id="path2907" d="m639.5 230.7c12.979 0 21.091 11.374 21.091 29.311 0 18.082-8.112 29.165-21.091 29.165-13.274 0-21.091-11.083-21.091-29.165 0-18.228 7.9645-29.311 21.091-29.311m0-12.541c-24.189 0-38.495 15.458-38.495 41.852 0 26.103 14.307 41.852 38.495 41.852 23.894 0 38.495-15.749 38.495-41.852 0-26.394-14.602-41.852-38.495-41.852"/>
      <path id="path2909" d="m770.62 251.99c0-22.166-10.177-33.832-29.646-33.832-10.767 0-19.026 4.6664-25.073 13.999v-11.812h-15.487v79.475h15.487v-44.914c0-14.728 8.407-23.915 22.124-23.915 10.767 0 16.372 6.9997 16.372 21.436v47.393h16.224v-47.831"/>
    </g>
  </g>
  <g id="layer3">
    <g id="g3340">
      <g id="g10846" transform="matrix(1.1549 0 0 1.1419 -394.62 -285.57)">
        <g id="g10848">
          <path id="path10850" d="m656.43 738.79c31.389 16.72 60.029 4.1498 87.857-8.75-11.395 10.268-24.282 18.862-34.286 23.929 8.4537 5.3236 9.9902 8.8843 37.143 10.536-50.364 7.0801-105.58-11.006-90-16.964l-0.71429-8.75z" stroke="#000" stroke-width="1px" fill="#4a4c4a"/>
          <path id="path10852" d="m672.86 753.79c9.7115 2.3246 15.821 0.0179 22.321-1.7857 7.8249 8.1385 19.948 10.352 26.959 11.497-7.516-2.8237-27.613 1.4068-49.28-9.7111z" fill="url(#linearGradient3041-7)"/>
        </g>
      </g>
      <path id="path10854" d="m34.39 53.747-3.647 75.443c3.9032 45.966 16.82 76.336 28.893 108.17l3.3662 19.969-4.4883 21.633-8.9766 21.633-12.062 23.159-4.9091 20.801 0.7013 32.45 12.904 30.786 32.119 42.712 48.67 57.689 95.236 51.032 66.342 24.129 19.075 3.8829 51.335-9.5686s9.1168-3.8829 9.8181-4.2989c0.70128-0.41603 21.88-26.071 21.88-26.071l5.8909-14.006 0.84155-35.639-32.961-27.042-24.826-37.165-3.9272-15.532-13.465-10.539-16.691-15.948-16.551-31.895-18.654-16.918-22.021-10.955-21.179-10.262-0.98182-10.955 4.2078-34.669v-31.202l-1.4026-18.998-5.8909-38.274-0.7013-18.444-0.84155-15.254 2.6649-15.948 5.3298-18.305 5.0493-19.969 3.5065-14.7 15.008-37.304 11.08-19.831-42.218-13.868 1.8234 2.2188-0.14028 0.5547h-1.1221l-57.085-0.27735-74.898-1.5254-86.259 1.9414 33.241 36.333-3.5065 27.319-2.6649 44.653-1.1221 6.379" fill="#ececec"/>
      <path id="path10856" d="m159.91 21.259c3.0947-2.9076 13.503-2.9227 21.422-3.9223-2.3464 9.5276-1.0344 17.247 0.79342 24.711 18.393-12.748 29.797-6.4934 44.432-9.0213l-1.5869 21.181c6.8607 0.27693 10.97 3.2746 15.868 5.4912 1.2912 2.0434 12.792-28.485 23.706-42.647l-111.67-1.156c-10.668 9.7912 1.106-0.75665-3.2768 10.07l10.315-4.7068z" fill="#ede98e"/>
      <path id="path10858" d="m55.709 82.591c7.9598 3.8675 31.524 13.667 31.979 13.867 4.1128-2.2646 8.532-4.6051 18.514-8.3205 19.732 2.1807 34.281 21.441 52.737 23.297 3.4703-12.938 6.1877-22.546 10.28-28.853 8.58-13.218 12.08-19.095 5.99-29.39-25.62-12.941-40.63-15.391-59.47-21.633l-54.42 12.203c-1.2514 7.4444-2.8154 15.198-2.6434 21.235l-1.8449 14.821-1.1221 2.7735z" fill="#ede98e"/>
      <path id="path10860" fill="#58662d" d="m83.764 14.492c-72.66 0-80.29 0.25481-79.429 2.4753 0.52443 1.3512 0.97553 6.4184 0.98181 11.26 0.012567 8.7113 0.082001 8.8183 6.6763 12.619 3.6653 2.1127 8.99 4.6609 11.88 5.6787 2.8899 1.0178 6.9513 3.4028 8.9836 5.2905 3.3811 3.1405 3.8944 3.2359 6.1854 0.97072 2.2911-2.2652 3.2321-2.1759 11.094 1.2619 11.272 4.9286 25.169 15.623 36.327 27.957 4.9488 5.4704 9.5489 9.6078 10.26 9.1734 0.71105-0.4345 3.1312-4.3571 5.3509-8.688 3.791-7.3968 12.885-17.354 31.222-34.121 4.32-3.9504 13.02-13.188 19.342-20.531l11.536-13.347h-80.41zm172.95 0.14553c-20.638-0.09303-34.648 0.40545-33.774 1.2134 2.2168 2.0509 20.853 7.6478 28.963 8.688 10.823 1.3881 12.359 2.8291 9.0327 8.3968-1.5038 2.5171-2.7275 5.1504-2.7 5.8729 0.0507 1.3343 0.48519 0.7994 8.3454-10.338 4.2724-6.0539 10.626-9.8975 20.667-12.474 2.6919-0.69066-10.39-1.2682-30.534-1.359z"/>
      <path id="path10862" d="m292.21 365.67c-3.0161 1.56 5.5621 18.988 19.299 39.459 0.58164 0.86677 8.3803 3.4133 8.7603 4.4751 14.125 39.462 50.953 81.792 48.109 80.011 8.9216 10.019 20.545 9.7444 29.952 17.847l-3.7688-11.571c-31.72-27.09-57.04-58.94-78.82-92.77-10.43-16.19-15.46-31.88-29.08-42.94l5.554 5.4913z" stroke="#000" stroke-width="1.562px" fill="#eee796"/>
      <path id="path10864" d="m85.444 419.29-4.4883 25.516c18.91 15.369 26.282 46.841 56.68 46.175 2.6014-0.057-27.169-17.545-24.208-18.103 2.5008-0.47139 29.823 17.173 32.608 16.304l14.587 1.1094c1.9844-16.962 20.814-13.105 33.662-16.641l92.01 44.376-79.667-19.969c-6.5738 0.64519-23.416-5.1076-21.584 2.396 6.3228 25.906-20.819-3.0172-41.252 5.3698 26.067 22.822 36.348 25.752 46.005 29.954-0.27717-7.2524-2.0206-16.679 3.3662-15.532 8.4507 0.0805 15.452 4.4599 22.441 8.8752-7.3911 6.2072-5.81 9.0879-7.8545 13.313 11.755 7.2996 17.304 6.4174 24.966 8.3205 0.57914-1.5151 1.9536-2.8992-1.7568-5.1211l-7.6088-9.5767 9.2161 5.5298-0.13101-8.0276 20.197 18.86 15.098 0.622c10.838 3.5706 12.898 2.8021 11.831 0.48741l7.8545-14.422 7.8545 21.079 5.6104-15.532 5.6104 2.2188c21.754 0.47613 17.524-1.3833 24.686-2.2188 5.7022-16.064-1.7429-6.4939 0.56104-12.041-5.1214 2.9487-14.482 7.5097-10.66-14.585l-40.04-18.81-15.59-8.67-25.16-10.25c-54.97-32.29-95.01-27.03-144.86-65.18l-9.9882 4.1636z" fill="#ede98e"/>
      <path id="path10866" fill="#2e2f12" d="m294.59 584.66c-6.048-0.79292-12.936-2.4722-15.308-3.7318-2.3712-1.2596-8.2151-3.2955-12.986-4.5242-4.7712-1.2287-12.021-3.9079-16.11-5.9538-4.0895-2.0459-13.444-5.8371-20.788-8.4249s-15.473-5.7468-18.065-7.02-10.111-4.5094-16.709-7.1915c-6.5982-2.6821-13.256-6.2526-14.796-7.9346-2.7656-3.0214-2.7242-3.032 3.4398-0.88176 3.4314 1.197 10.443 4.273 15.581 6.8356 11.77 5.8701 21.414 8.6157 22.751 6.4772 1.3631-2.1806 5.7684-0.24386 6.6304 2.915 0.39814 1.459 5.4905 4.6002 11.544 7.1209 5.9573 2.4807 13.797 5.8006 17.422 7.3775 3.6246 1.577 7.2954 2.8672 8.1574 2.8672s4.0448 1.4453 7.0729 3.2117 8.547 3.541 12.264 3.9435c3.7173 0.40251 10.116 1.1244 14.22 1.6042 6.8357 0.79916 7.4618 0.5957 7.4618-2.4251 0-1.8136 2.8276-6.3304 6.2836-10.037 3.456-3.707 6.2836-7.455 6.2836-8.329 0-2.2936 6.2712-6.0152 12.366-7.3388 6.2069-1.3479 14.238-6.4881 20.512-13.128 5.0187-5.3118 7.596-5.9827 9.0079-2.3447 0.58984 1.5198-1.0089 4.4242-4.2619 7.7425-5.221 5.3259-5.651 7.794-1.054 6.05 1.3529-0.5133 3.5618-3.2292 4.9085-6.0352 1.3468-2.8061 3.4527-5.9258 4.6799-6.9328s2.6419-3.4486 3.1439-5.426c0.50195-1.9774 3.718-5.4307 7.1467-7.6741 4.68-3.0621 6.4959-5.4591 7.2846-9.6154 0.57779-3.0451 0.60973-5.9723 0.071-6.505-0.53874-0.53265 0.10431-2.604 1.429-4.6029 2.6704-4.0295 1.5497-7.5863-4.4386-14.087-5.8587-6.3597-0.31148-3.623 6.4372 3.1757 6.1932 6.2392 6.7008 7.4188 7.8526 18.25 1.4334 13.479-1.4392 29.655-6.1548 34.659-1.6237 1.7231-2.9522 3.7468-2.9522 4.4969 0 0.75016-1.9024 3.9382-4.2275 7.0846-12.342 16.702-19.724 20.493-49.183 25.261-19.617 3.175-20.641 3.2047-36.916 1.071zm44.891-18.714c-1.268-6.1299-5.0239-7.1156-9.4034-2.4679-4.3318 4.5971-4.1424 6.2869 1.0381 9.2638 6.0315 3.4659 9.8468 0.36635 8.3652-6.7959zm16.911-7.3336c1.9163-2.5627 2.6928-4.6595 1.7254-4.6595-1.8308 0-7.6171 6.1209-7.7084 8.1541-0.11452 2.553 2.6822 0.91947 5.983-3.4946zm-58.88 0.77138c-1.4958-3.8538 1.6393-5.881 7.2206-4.669 3.4593 0.75122 4.8066 1.8537 4.4624 3.6517-0.69239 3.617-10.348 4.4578-11.683 1.0173zm-96.391-31.838c-3.888-1.5718-8.9926-3.2708-11.344-3.7755-4.1598-0.89301-8.7095-6.4225-6.8208-8.2898 0.51744-0.51159 6.0532 1.4388 12.302 4.3341 18.12 8.3964 22.812 14.584 5.8628 7.7313zm-33.774 0.003c-0.53398-0.85424-0.22225-1.5532 0.69273-1.5532 0.91499 0 1.6636 0.69892 1.6636 1.5532 0 0.85424-0.31173 1.5532-0.69274 1.5532-0.381 0-1.1296-0.69892-1.6636-1.5532zm151.59-1.4615c0-4.1822 2.9717-5.585 5.8348-2.7542 2.863 2.8307 1.4442 5.7689-2.7857 5.7689-1.9709 0-3.0491-1.066-3.0491-3.0146zm-173.58-6.1035c-2.592-1.5916-6.48-4.8878-8.64-7.3247-4.1258-4.6548-3.7784-4.4646 8.3676 4.5825 8.0275 5.9794 8.1888 7.6033 0.27239 2.7422zm25.732-4.3078c-1.9209-2.2884-1.7368-2.4244 1.7713-1.309 2.1532 0.68461 4.7675 1.2514 5.8095 1.2595 1.042 0.008 1.5304 0.59716 1.0855 1.309-1.3596 2.175-6.3979 1.4428-8.6662-1.2595zm-47.31-13.08c-3.011-2.7934-3.8251-4.136-1.9708-3.2502 3.3281 1.5898 9.8245 8.0095 8.1052 8.0095-0.55227 0-3.3127-2.1417-6.1343-4.7594zm100.94-3.4471c-2.1417-1.0714-5.4879-4.7305-7.4359-8.1312-4.191-7.3162-4.1669-7.1441-1.5065-10.741 1.9768-2.6728 2.3158-2.5961 6.4086 1.4505 3.8104 3.7674 5.1352 4.1623 11.203 3.34 5.9077-0.80059 7.2244-0.44931 9.3004 2.4812 3.5415 4.999 3.0117 7.0701-2.687 10.505-5.8945 3.5534-9.809 3.8339-15.283 1.0955zm-109.21-8.8783c-0.53398-0.85424-0.26396-1.5532 0.60004-1.5532 0.86399 0 2.0078 0.69892 2.5418 1.5532 0.53398 0.85424 0.26396 1.5532-0.60004 1.5532-0.86399 0-2.0078-0.69892-2.5418-1.5532zm252.85-8.5552c-2.5582-2.0671-3.9444-3.7679-3.0804-3.7796 2.2133-0.03 9.5522 5.738 8.5551 6.7239-0.45286 0.44774-2.9165-0.87716-5.4747-2.9442zm-285.24-26.84c-3.1251-3.1674-5.379-6.5869-5.0087-7.5989 0.38564-1.054 3.0426 0.75294 6.2196 4.2297 7.237 7.92 6.1803 10.86-1.2109 3.3692zm246.55-18.572c-2.6221-6.364-4.2131-19.208-2.3013-18.578 3.4021 1.1212 7.3083 8.4286 8.2706 15.472 0.85255 6.2397 0.60566 7.3775-1.6007 7.3775-1.4348 0-3.4007-1.922-4.3686-4.2712zm-71.602-413.07c-1.944-0.37021-3.5345-1.1997-3.5345-1.8434 0-0.64366-3.3636-1.1193-7.4746-1.0568-5.1352 0.07797-9.1722-0.94858-12.898-3.2797l-5.4235-3.3931 30.571 0.12286c24.917 0.10018 28.975 0.40157 21.943 1.63-5.0107 0.87532-10.494 3.0602-13.08 5.2117-2.4491 2.0375-4.9289 3.6094-5.5106 3.4931-0.58171-0.11633-2.6482-0.51441-4.5922-0.8846zm-147.28-8.227c-2.5089-1.0659-1.9364-1.3568 2.8418-1.444 3.6128-0.06585 5.5989 0.50619 5.0127 1.444-1.1467 1.8344-3.5369 1.8344-7.8545 0zm14.096-0.06787c-0.51067-0.81693 0.52705-1.4853 2.306-1.4853 3.793 0 4.1757 0.86373 0.92849 2.0957-1.2683 0.4812-2.7239 0.20652-3.2345-0.61041zm99.795 0.06787c-2.0137-1.2867-1.9566-1.5091 0.39272-1.5294 1.512-0.01243 2.7491 0.67514 2.7491 1.5294 0 1.8942-0.17718 1.8942-3.1418 0z"/>
      <path id="path10868" d="m301.07 587.94c-2.16-0.68393-6.9543-1.3132-10.654-1.3983s-9.355-1.2677-12.567-2.6278c-3.2122-1.3601-9.1676-3.475-13.234-4.6997-4.0666-1.2247-13.256-4.891-20.422-8.1474-7.1653-3.2563-16.916-7.1748-21.668-8.7077s-9.3468-3.3168-10.211-3.9642c-0.86399-0.64744-7.769-3.7019-15.344-6.7877-7.5755-3.0858-21.36-10.048-30.633-15.472-9.2725-5.424-20.04-11.679-23.928-13.899-13.158-7.5143-46.305-42.755-69.573-73.968-5.3668-7.1994-11.918-15.936-14.559-19.414-18.64-24.554-22.038-31.082-25.927-49.813-2.2734-10.949-2.0001-41.431 0.38452-42.888 0.8989-0.54928 2.2064-3.7048 2.9056-7.0122 2.1028-9.9474 5.7808-18.421 12.371-28.502 8.0242-12.275 13.556-34.19 12.277-48.636-0.77914-8.798-7.8093-32.4-15.056-50.546-1.5904-3.9826-4.1508-12.134-5.6897-18.113-1.5389-5.9797-4.0996-15.765-5.6903-21.744-1.5907-5.9797-3.2961-15.765-3.7897-21.744-0.85111-10.31 1.3638-61.484 3.3429-77.236 0.84021-6.6871 0.49843-7.7628-3.8246-12.037-2.7508-2.7197-6.3991-4.6937-8.6749-4.6937-2.1602 0-6.0278-1.7473-8.5948-3.8829s-5.8023-3.8829-7.1896-3.8829c-2.1056 0-2.5223-2.0527-2.5223-12.425 0-7.2481 0.65455-12.425 1.5709-12.425 0.88691 0 1.5709 4.4169 1.5709 10.144 0 8.2604 0.51054 10.322 2.7491 11.104 1.512 0.52759 4.1629 2.1905 5.8909 3.6953s6.1082 3.5143 9.7339 4.4655c3.6257 0.95122 7.9684 3.4594 9.6505 5.5737 2.4355 3.0613 3.2425 3.37 3.9622 1.5157 1.3262-3.417 5.3312-2.873 16.169 2.1964 10.07 4.7101 30.232 22.18 38.441 33.307l4.4205 5.9925 5.1217-10.601c4.846-10.03 15.721-22.482 32.675-37.413 3.024-2.6631 10.093-10.456 15.709-17.318 7.1308-8.7125 11.277-12.504 13.745-12.569 4.6427-0.12239 4.459 1.5597-0.78545 7.1911-2.376 2.5513-8.4144 9.4694-13.419 15.374-5.0043 5.9042-12.38 13.531-16.391 16.948-14.234 12.127-21.143 20.332-26.483 31.451-4.5103 9.392-6.0368 11.26-9.1996 11.26-2.1648 0-5.106-1.6516-6.854-3.8487-13.821-17.418-38.982-38.093-42.305-34.807-1.1092 1.0967-2.662 0.49044-4.9424-1.9296-2.7013-2.8667-3.325-3.0469-3.325-0.96035 0 1.4126-1.1589 5.9126-2.5753 10-1.4164 4.0875-2.4711 10.402-2.3437 14.033 0.1274 3.6305-0.33448 6.6009-1.0264 6.6009-1.2853 0-1.1777 39.721 0.16359 60.382 0.43779 6.7439 1.5496 11.95 2.7026 12.655 1.0807 0.66037 1.5716 2.6606 1.0951 4.4622-0.47501 1.7959-0.1812 3.2653 0.6529 3.2653s1.1269 0.62335 0.65065 1.3852c-0.84048 1.3446 2.5327 12.696 5.9891 20.154 0.93748 2.0229 3.1309 4.2501 4.8743 4.9493 2.7443 1.1006 2.7933 1.2845 0.36544 1.3697-2.3577 0.0828-2.5228 0.6185-1.037 3.3636 0.97207 1.7958 1.4304 4.5392 1.0185 6.0964-0.54028 2.0427-0.08624 2.5799 1.6302 1.9287 1.912-0.7254 2.2527 0.16715 1.7356 4.5467-0.49369 4.181-0.08326 5.4122 1.7631 5.29 1.6001-0.10593 2.4066 1.2286 2.4066 3.9818 0 2.2776 0.53018 4.6656 1.1782 5.3066 0.648 0.64102 1.1782 2.3969 1.1782 3.902s1.0616 3.7861 2.3591 5.069c1.8102 1.7898 1.993 3.2846 0.78545 6.4247-2.0047 5.2132-1.9807 5.5237 0.38999 5.0549 2.0804-0.41137 2.2301 4.6829 0.3196 10.872-0.80963 2.6228-0.44518 3.4946 1.4608 3.4946 1.3968 0 2.5396 0.69892 2.5396 1.5532 0 0.85424-0.75135 1.5532-1.6696 1.5532-0.9183 0-1.4485 1.5726-1.1782 3.4946 0.30334 2.1569-0.26019 3.346-1.4722 3.1063-1.08-0.21356-1.9636 0.60294-1.9636 1.8144s-0.47358 3.4229-1.0524 4.9143c-0.7543 1.9435-0.48904 2.3673 0.93646 1.4963 1.3918-0.85047 1.7976-0.34411 1.3518 1.6866-0.35037 1.5961-1.3769 2.7608-2.2813 2.5882-0.90434-0.17258-2.4627 2.3873-3.4631 5.6886s-2.8332 7.9354-4.0729 10.298-1.8275 4.9779-1.3063 5.8118c0.56882 0.90999 0.11593 1.0079-1.1328 0.24485-1.5233-0.93082-1.8035-0.5575-1.0462 1.3939 0.63639 1.6397 0.41266 2.2853-0.58147 1.6778-1.0304-0.62965-1.2603 0.4135-0.63433 2.8792 0.77939 3.0703 0.27748 4.0875-2.437 4.9393-2.3886 0.74957-3.1828 1.9641-2.636 4.0315 0.43041 1.6273 0.21565 2.6123-0.47722 2.1889-1.6231-0.99182-2.8042 2.1589-5.8178 15.521-2.8351 12.57-3.6932 24.074-1.7957 24.074 1.7617 0 1.6278 6.4201-0.19328 9.2669-0.9169 1.4334-0.85787 2.9914 0.15929 4.2032 0.88896 1.059 1.1411 2.6856 0.56036 3.6147-0.58076 0.92909-0.24514 2.6551 0.74583 3.8357s1.682 3.072 1.5357 4.2031c-0.40041 3.0953 1.8239 9.0459 3.3813 9.0459 0.75304 0 1.2008 1.5629 0.99496 3.4731-0.24432 2.2677 0.77871 3.9813 2.9477 4.9372 3.3573 1.4797 15.485 18.771 15.54 22.155 0.01618 1.0075 0.66386 2.4054 1.4394 3.1063 0.81487 0.73657 0.92422 0.29119 0.25906-1.0552-0.63301-1.2814 0.62539-0.27367 2.7965 2.2393s3.6825 4.9928 3.3588 5.5107c-0.32373 0.5179 2.225 4.4027 5.6638 8.6328s7.3104 9.636 8.6035 12.013c1.2931 2.3771 2.9478 3.9573 3.6771 3.5117 1.6833-1.0286 5.3665 3.2435 4.2863 4.9715-0.44439 0.71093 1.779 3.712 4.941 6.669 3.1619 2.957 4.7778 4.1364 3.5907 2.6208-1.187-1.5156-1.7736-3.1359-1.3033-3.6008 0.4702-0.46489 2.1615 1.0076 3.7584 3.2723 1.5969 2.2646 4.8676 6.4462 7.2682 9.2924s4.1679 6.1082 3.9272 7.2491c-0.24063 1.1409 0.34942 1.9314 1.3112 1.7568 0.9618-0.1746 5.4281 2.7877 9.9251 6.5829s9.3594 7.555 10.805 8.3551c1.446 0.80008 2.259 1.8206 1.8066 2.2678-0.45236 0.44724-4.9545-2.6731-10.005-6.934-5.0503-4.2609-9.5938-7.3404-10.097-6.8432-0.91945 0.90906 7.0479 8.2898 20.165 18.68 17.609 13.949 61.026 36.512 90.169 46.86 6.1346 2.1781 17.499 6.7766 25.255 10.219 7.7554 3.4423 16.06 6.3251 18.454 6.4063 2.3946 0.0812 4.3554 0.5959 4.3573 1.1438 0.008 2.3165 12.733 5.7304 25.138 6.7445 20.814 1.7013 54.826-4.5368 66.255-12.152 5.3339-3.5539 18.401-19.22 18.509-22.191 0.035-0.96319 1.0853-2.5896 2.3339-3.6141 4.608-3.7811 7.6194-17.131 7.3531-32.598-0.22941-13.329-0.60952-15.11-3.7234-17.445-1.9074-1.4306-3.9293-2.479-4.4933-2.3297-1.5425 0.40819-15.545-10.194-15.545-11.77 0-0.75268 3.1811 1.2087 7.069 4.3586 3.888 3.1499 7.069 4.9528 7.069 4.0064 0-0.94644-2.6509-3.4006-5.8909-5.4538s-8.3003-6.2283-11.245-9.278c-2.9449-3.0497-6.0585-5.1147-6.919-4.5889-0.86058 0.52587-1.0973 0.20839-0.52603-0.7055 0.57127-0.9139-0.60267-3.6428-2.6088-6.0643s-5.2004-6.9451-7.0985-10.052c-3.1718-5.1926-8.1258-10.516-8.1258-8.7324 0 0.41426 2.1298 3.403 4.733 6.6416s4.4067 6.2111 4.0078 6.6054c-0.8657 0.85591-8.6198-7.6127-8.6912-9.492-0.0864-2.2784-5.8725-8.7252-6.9102-7.6992-0.54669 0.54052-0.99399-0.1821-0.99399-1.6058 0-3.4136 0.77455-3.2704 4.9029 0.906l3.4544 3.4946-3.3953-5.6228c-1.8674-3.0925-3.8422-8.8469-4.3885-12.788-0.78694-5.6766-2.0699-7.9767-6.1767-11.074-6.5503-4.9397-6.8622-4.9016-6.1388 0.75053 0.69889 5.4599-1.8312 6.2116-3.9208 1.1649-0.79578-1.922-4.6547-6.5927-8.5753-10.379-3.9206-3.7865-9.4352-11.475-12.255-17.085-6.8363-13.603-6.8779-13.743-3.0983-10.427 1.8052 1.5835 3.7125 4.7286 4.2384 6.9892 1.2792 5.4989 7.9194 13.52 9.3276 11.268 0.59185-0.94682 0.25184-1.7215-0.75557-1.7215-1.01 0-1.412-1.0813-0.89616-2.4104 0.53645-1.3822 0.27311-2.0056-0.61737-1.4615-1.4249 0.87067-2.2505-1.2671-1.6993-4.3997 0.19462-1.106-1.5686-3.5799-9.2082-12.919-0.79904-0.97679-1.3186-2.0335-1.1545-2.3484 0.16407-0.31481-0.53377 0.3735-1.5507 1.5296-1.5079 1.7142-2.2947 1.2499-4.2648-2.5167-1.3286-2.5403-5.2682-7.2912-8.7545-10.558-7.3095-6.8483-8.2984-9.6901-2.0188-5.8016l4.32 2.675-3.8518-4.2382c-2.1185-2.331-4.703-3.9153-5.7433-3.5206-2.3819 0.90373-7.3181-4.3121-5.7246-6.0489 0.64988-0.7083 0.32672-0.80264-0.71812-0.20963-2.3342 1.3248-8.3111-2.1535-8.3111-4.8367 0-1.0759-1.7673-1.9561-3.9272-1.9561-2.16 0-3.9272-0.56796-3.9272-1.2621 0-1.3809-14.547-8.0357-17.688-8.0914-1.0718-0.019-3.5682-1.2668-5.5477-2.7729-3.3504-2.5491-3.5463-3.593-2.8353-15.109 0.42011-6.8037 1.3602-17.438 2.089-23.631 0.72885-6.1932 0.84618-11.26 0.26073-11.26-1.6083 0-0.85237-5.2731 0.94284-6.5772 0.94617-0.68729 0.71349-1.1505-0.58506-1.1649-1.7382-0.0191-1.777-0.47528-0.20039-2.3535 1.3511-1.6096 1.4106-2.3297 0.19234-2.3297-0.98354 0-1.7632-2.5214-1.7632-5.702 0-3.1361-1.1738-6.9845-2.6085-8.5519s-2.1883-3.2653-1.6748-3.7731c1.3495-1.3343 6.9425 4.2792 7.9026 7.9315 0.44909 1.7085 0.74329 0.18057 0.65376-3.3954-0.0895-3.5759-0.81696-6.3716-1.6165-6.2126-0.79956 0.15897-1.6623-0.93741-1.9172-2.4364-0.25493-1.499 0.18136-2.3314 0.9695-1.8498 0.78815 0.4816 1.4222-1.7866 1.409-5.0404-0.0179-4.413-0.41435-5.3241-1.5603-3.5863-1.0525 1.5962-1.225 0.006-0.54787-5.0478 0.662-4.9415 0.41493-7.3775-0.74823-7.3775-0.98879 0-1.6442-2.429-1.5221-5.6409 0.18061-4.75-4.0198-34.828-2.453-32.709 3.847 5.2017 14.043 86.1 12.254 99.54-1.849 13.897-4.0747 26.883-5.6825 33.154-2.0506 7.9979-0.71954 10.062 8.6281 13.379 15.209 5.3974 24.561 9.9855 34.129 16.744 10.647 7.5198 24.396 22.02 28.706 30.275 1.3963 2.6739 4.2956 6.926 6.443 9.4492s5.3927 8.3731 7.2118 13c3.5115 8.931 6.6221 12.295 11.369 12.295 4.9528 0 13.795 9.8509 14.842 16.534 1.1034 7.0471 5.7307 16.836 10.539 22.295 1.8811 2.1356 6.5076 8.4259 10.281 13.978 3.7734 5.5526 10.362 12.891 14.642 16.308 4.2799 3.417 11.404 9.6852 15.832 13.929l8.0502 7.7168 0.59267 15.83c0.84208 22.492-1.468 29.03-18.079 51.171-7.4913 9.9852-9.219 11.364-18.916 15.101-5.8692 2.2618-19.673 5.5291-30.674 7.2608-21.356 3.3616-24.899 3.5436-31.051 1.5954zm-188.51-101.43c0-0.25954-2.6509-2.8805-5.8909-5.8244l-5.8909-5.3524 5.4136 5.8244c5.0388 5.4212 6.3682 6.5385 6.3682 5.3524zm-23.269-26.27c-1.1272-1.1145-1.8589-1.2062-1.8589-0.23298 0 2.0731 1.8578 3.9099 2.9062 2.8734 0.4464-0.44135-0.02482-1.6295-1.0473-2.6404zm-20.71-26.65c0-0.32251-1.2371-1.5456-2.7491-2.718-2.4915-1.9319-2.5471-1.877-0.59311 0.58641 2.0522 2.5872 3.3422 3.4099 3.3422 2.1316zm-7.8545-10.822c0-0.29472-1.5905-1.8673-3.5345-3.4946l-3.5345-2.9588 2.9925 3.4946c2.8123 3.2841 4.0765 4.2017 4.0765 2.9588zm232.49-55.89c0-0.2782-1.944-2.2002-4.32-4.2712l-4.32-3.7653 3.8084 4.2712c3.5595 3.9921 4.8316 4.9834 4.8316 3.7653zm-66.508-63.562c-0.43579-1.0678-0.79235-0.19414-0.79235 1.9414 0 2.1356 0.35656 3.0092 0.79235 1.9414 0.43578-1.0678 0.43578-2.8151 0-3.8829zm4.7127-37.276c-0.43579-1.0678-0.79235-0.19414-0.79235 1.9414 0 2.1356 0.35656 3.0092 0.79235 1.9414 0.43578-1.0678 0.43578-2.8151 0-3.8829zm48.443 311.02c-0.53398-0.85424 0.13117-1.5532 1.4782-1.5532s2.4491 0.69892 2.4491 1.5532c0 0.85424-0.66518 1.5532-1.4782 1.5532-0.81301 0-1.9151-0.69892-2.4491-1.5532zm-10.985-3.0885c-0.55035-0.88042 0.0803-1.1408 1.4782-0.6104 2.7215 1.0325 3.2194 2.1458 0.95976 2.1458-0.81301 0-1.9101-0.69092-2.438-1.5354zm69.894-3.809c0-0.37671 0.70691-1.1169 1.5709-1.6448 0.864-0.52795 1.5709-0.21974 1.5709 0.68491 0 0.90466-0.7069 1.6448-1.5709 1.6448-0.86399 0-1.5709-0.30821-1.5709-0.68491zm-42.414-3.1116c0-2.4618 9.073-7.9417 10.619-6.4136 0.4957 0.49012 0.60673 1.0682 0.24674 1.2846-0.36 0.21645-2.952 1.9847-5.76 3.9294-4.0069 2.775-5.1054 3.0332-5.1054 1.1995zm-48.305-1.6254c-2.808-1.2067-5.1054-2.9266-5.1054-3.8221 0-2.2355 0.5843-2.0989 6.9793 1.6316 8.357 4.8751 7.2862 6.1269-1.8738 2.1905zm10.385-0.86758-3.7086-3.1832 4.7127 2.1935c2.592 1.2064 5.7731 2.5836 7.069 3.0605 1.6143 0.59399 1.298 0.90567-1.0042 0.98967-1.8483 0.0674-5.0293-1.3098-7.069-3.0605zm36.349-2.8462c0-0.85424 0.70691-1.9851 1.5709-2.5131 0.864-0.52795 1.5709-0.26098 1.5709 0.59326s-0.7069 1.9851-1.5709 2.5131c-0.86399 0.52795-1.5709 0.26098-1.5709-0.59326zm26.021-0.6386c0.58992-1.5318 1.4683-2.3938 1.952-1.9156 0.48367 0.47821 0.001 1.7314-1.0726 2.785-1.5514 1.5225-1.7319 1.3441-0.87938-0.86946zm7.9709-0.3213c0.49733-1.2814 2.4191-2.3075 4.2707-2.2804 3.298 0.0485 3.3045 0.0958 0.31713 2.3297-3.9126 2.926-5.735 2.9063-4.5878-0.0494zm-94.864-1.8952c-1.08-0.38134-1.9636-1.8333-1.9636-3.2265 0-2.3056 0.23853-2.2973 2.6556 0.0924 2.84 2.8079 2.5177 4.2674-0.69195 3.1341v0.00003zm79.723-3.208c0-0.6712 1.2371-1.3251 2.7491-1.4531 1.512-0.12798 4.8698-0.73991 7.4618-1.3598 4.2642-1.0198 4.5075-0.88148 2.5567 1.4531-2.1584 2.583-12.768 3.7129-12.768 1.3598zm-9.0327-2.2284c-1.944-0.92697-3.5345-2.2775-3.5345-3.0012 0-2.2683 2.5402-1.441 5.4982 1.7905 3.1947 3.4902 3.03 3.5918-1.9636 1.2107zm-103.82-7.3897c-4.6112-2.5133-9.913-5.0449-11.782-5.6258-4.6695-1.4515-20.178-10.174-19.421-10.923 0.80546-0.79636 13.4 4.979 18.239 8.3635 3.7614 2.631 3.7808 2.6201 2.9519-1.6668l-0.83432-4.3152 3.0002 3.1839c1.6501 1.7512 3.6795 3.1839 4.5099 3.1839 0.83033 0 1.333 0.85707 1.117 1.9046s1.241 2.1501 3.2379 2.4502c1.9968 0.3001 4.0164 1.5398 4.488 2.7549s1.8422 2.2093 3.0457 2.2093c1.2036 0 2.1883 0.69892 2.1883 1.5532 0 2.361-1.6226 1.8968-10.74-3.0727zm152.12 0.42732c0-0.80993 1.8632-3.167 4.1404-5.238 3.6947-3.36 3.9576-3.4172 2.4421-0.53129-2.0281 3.8621-6.5826 7.8538-6.5826 5.7692zm-3.1611-6.638c1.7411-3.2166 7.8935-7.2452 7.8466-5.138-0.0321 1.4438-7.0344 8.2087-8.4968 8.2087-0.55661 0-0.26405-1.3818 0.65014-3.0707zm-146.27-2.59c-1.955-2.3431-1.8264-2.4104 1.3786-0.72194 3.6554 1.9258 4.5555 3.306 2.156 3.306-0.75819 0-2.3487-1.1628-3.5345-2.584zm-0.58507-5.2871c-2.592-1.6415-6.0912-2.9883-7.776-2.9928-2.272-0.006-2.606-0.46025-1.2932-1.7582 2.4246-2.3973 8.798-0.57035 14.1 4.0418 5.3142 4.6228 1.9071 5.1031-5.0309 0.70922zm114.57-3.1674c-0.72687-1.1628 0.0305-1.3727 2.339-0.64827 3.6929 1.1588 7.9758-1.3687 7.9758-4.7069 0-1.9736-5.7449-4.7668-8.364-4.0666-0.71221 0.19042-0.81182-0.42667-0.22135-1.3713 0.59245-0.94776 2.7569-1.2998 4.8295-0.78548 2.2209 0.55112 3.7559 0.24771 3.7559-0.74238 0-0.92093 0.7551-1.213 1.678-0.64908 0.9229 0.56395 1.3418 1.8917 0.93079 2.9505-0.41096 1.0589-0.14138 2.8942 0.59889 4.0786 1.9554 3.1281-2.82 7.6604-8.0711 7.6604-2.4071 0-4.8602-0.7738-5.4514-1.7196zm-157.77-4.4931c-0.92479-1.7085-2.6775-3.1063-3.8949-3.1063s-4.1969-1.7679-6.6211-3.9286l-4.4076-3.9286 7.069 3.409c7.7621 3.7432 12.567 7.3176 12.567 9.3485 0 2.4691-3.0294 1.316-4.7127-1.7939zm213.84 1.7473c0.65703-1.9488 2.9454-2.4013 2.9454-0.58244 0 0.64068-0.79527 1.427-1.7673 1.7473-0.97199 0.32033-1.5022-0.20386-1.1782-1.1649zm-153.75-14.36c-2.808-1.778-5.1054-3.9042-5.1054-4.725 0-1.5833 0.83402-1.1823 9.2519 4.4484 6.6424 4.4431 2.8349 4.6971-4.1465 0.27662zm12.6 2.3466c0.52199-0.5161 1.8769-0.57127 3.0109-0.12255 1.2532 0.4958 0.88092 0.86384-0.94909 0.93836-1.656 0.0674-2.5838-0.29965-2.0618-0.81575v-0.00006zm-51.283-4.9601c-0.42598-0.68147-0.19023-2.1737 0.5239-3.3162 1.0038-1.6059 1.7056-1.3248 3.0934 1.239 1.4561 2.69 1.3571 3.3162-0.5239 3.3162-1.2754 0-2.6674-0.55757-3.0934-1.239zm43.789-3.6244c-2.7188-1.665-3.6766-2.8895-2.2639-2.8942 2.7826-0.009 8.9514 4.0363 7.7596 5.0888-0.43065 0.38029-2.9037-0.60727-5.4957-2.1946zm-55.587 0.31364c-1.3506-0.82527-1.5112-1.6257-0.45578-2.2706 0.89653-0.54783 2.1032-0.23923 2.6814 0.68577 1.4428 2.3082 0.29533 3.1253-2.2256 1.5849zm-32.182-4.9604c-4.0737-2.6679-7.011-5.242-6.5272-5.7203 0.48378-0.47831 2.812 0.68161 5.1739 2.5776 2.3618 1.896 5.5314 3.8528 7.0433 4.3483 1.512 0.49556 2.7491 1.5184 2.7491 2.273 0 1.9795-0.28246 1.863-8.4391-3.4787zm111.12 1.624c-2.9341-2.901-3.9311-3.049-9.8767-1.4661-9.2768 2.4698-16.351-0.10825-22.199-8.09-4.9044-6.6938-4.9779-11.736-0.24967-17.116 3.9452-4.4888 5.3947-3.0617 1.7885 1.7609-3.2343 4.3252-3.2579 4.6691-0.68778 10.024 4.9546 10.323 12.492 13.181 22.768 8.633 5.4428-2.4093 6.481-2.5202 5.7409-0.61332-0.49692 1.2803-0.39549 2.3498 0.22538 2.3767 1.0836 0.0469 7.3095 7.717 6.264 7.717-0.28034 0-1.9783-1.452-3.7733-3.2267zm-43.469 0.55629 5.02-0.62013-7.0761-6.8971c-8.6267-8.4085-6.5662-9.2512 2.4024-0.98248 8.0615 7.4324 8.188 9.6918 0.52445 9.3684-5.6771-0.23954-5.7088-0.27105-0.87083-0.86868zm-60.787-3.5422c-3.024-1.6369-4.9329-3.0054-4.242-3.0412 1.6647-0.0862 10.526 4.4688 10.526 5.4108 0 1.0166-0.0919 0.98189-6.2836-2.3696zm40.058-6.2126c-1.5638-1.7085-4.6777-3.119-6.9198-3.1346-2.2421-0.0155-7.1872-2.1123-10.989-4.6595-5.0448-3.3798-6.0657-4.6312-3.778-4.6312 1.7241 0 4.3676 1.3469 5.8744 2.9932 1.5069 1.6462 5.3277 3.4369 8.4907 3.9792 5.2486 0.89992 12.82 5.414 12.82 7.6433 0 1.9015-2.7588 0.80241-5.4982-2.1904zm-58.234-1.5888c-3.3533-1.2486-9.6443-9.2834-7.2686-9.2834 0.73332 0 2.9935 1.7473 5.0228 3.8829 2.0292 2.1356 4.4499 3.8596 5.3792 3.8312 0.92939-0.0284-0.00088-1.4437-2.0673-3.1452-2.0664-1.7014-3.436-3.411-3.0435-3.799 0.39249-0.38806 3.1435 1.4304 6.1134 4.0411s4.2084 4.3827 2.7522 3.938c-1.4562-0.44479-2.87-0.23404-3.1418 0.46831-0.27183 0.70236-1.9578 0.73207-3.7465 0.066v0.00002zm239.67 0.0356c0-0.85423 0.31173-1.5532 0.69274-1.5532 0.381 0 1.1296 0.69893 1.6636 1.5532 0.53398 0.85424 0.22225 1.5532-0.69273 1.5532-0.91499 0-1.6636-0.69892-1.6636-1.5532zm-167.93-9.1572c-3.4758-3.5059-5.8174-6.3453-5.2036-6.3098 2.0846 0.12068 13.427 10.802 12.472 11.746-0.52197 0.51608-3.7928-1.9302-7.2686-5.4361zm-11.473 1.4176c3.8114-3.1418 7.361-2.7989 8.7763 0.84774 0.69661 1.7948 0.30296 1.8499-2.1957 0.30709-2.387-1.4738-3.46-1.469-4.9688 0.0227-1.0584 1.0464-2.6665 1.8793-3.5737 1.8509s-0.0243-1.3912 1.9618-3.0284v0.00005zm57.472-0.71207c-0.47795-1.2314-0.63249-3.4003-0.34341-4.8198 0.35411-1.7388 1.1216-1.0084 2.3528 2.239 1.0557 2.7848 1.2007 4.8198 0.34341 4.8198-0.81606 0-1.8748-1.0076-2.3528-2.239zm-13.563-2.5477c-4.4738-2.5717-3.4448-6.3709 1.5709-5.8003 3.0372 0.34552 4.32 1.3754 4.32 3.4684 0 3.5983-2.1839 4.4628-5.8909 2.3319zm134.97-0.90819c-0.576-0.56948-1.0473-1.7576-1.0473-2.6404 0-0.97321 0.73168-0.88151 1.8589 0.23297 1.0224 1.0109 1.4937 2.199 1.0473 2.6404-0.44641 0.44136-1.2829 0.33653-1.8589-0.23297zm-140.86-9.8367c-3.0774-0.97442-3.2474-1.2373-0.78545-1.2146 1.728 0.016 5.2625 0.56249 7.8545 1.2146 4.2331 1.065 4.3131 1.1886 0.78545 1.2146-2.16 0.0158-5.6945-0.53065-7.8545-1.2146zm129.82-6.9892c-0.49732-1.2814-0.6595-2.3297-0.36041-2.3297 0.29908 0 1.4238 1.0484 2.4994 2.3297 1.1272 1.3428 1.2799 2.3297 0.36041 2.3297-0.87734 0-2.0021-1.0484-2.4994-2.3297zm-59.976-2.4331c-0.5695-0.91107-0.69855-1.9896-0.28677-2.3967 0.41176-0.40713 1.1673 0.3383 1.6789 1.6565 1.0622 2.7368 0.15693 3.2182-1.3921 0.74023zm-216.54-16.39c-2.4285-3.0091-4.1435-5.74-3.8112-6.0685 0.33231-0.32856 2.5911 1.8646 5.0196 4.8738 2.4285 3.0091 4.1435 5.74 3.8112 6.0685-0.33231 0.32856-2.5911-1.8646-5.0196-4.8738zm232.31 2.5089c-1.2287-1.9657 0.85085-1.9657 3.9272 0 2.0307 1.2975 1.9892 1.5089-0.30001 1.5294-1.461 0.0124-3.0933-0.67515-3.6272-1.5294zm19.425-10.883c-6.6513-11.322-7.101-15.654-0.67368-6.4904 3.1842 4.5398 5.5609 9.4276 5.2815 10.862-0.34363 1.7642-1.8339 0.35041-4.6079-4.3713zm-260.56-66.67c0-0.79483-1.5905-1.748-3.5345-2.1182-3.0305-0.57711-2.9185-0.70325 0.78545-0.8846 2.8878-0.14134 4.32 0.56086 4.32 2.1182 0 1.2814-0.35345 2.3297-0.78545 2.3297s-0.78545-0.65031-0.78545-1.4451zm122.53-38.59c0-0.84605 1.7673-1.8723 3.9272-2.2805 2.16-0.40824 3.9272-0.14025 3.9272 0.59552 0 0.73578-0.64909 1.3378-1.4424 1.3378-0.79334 0-2.5606 0.42423-3.9272 0.94275-1.3667 0.51851-2.4848 0.25053-2.4848-0.59551zm13.353-3.4536c0.53398-0.85424 1.6361-1.5532 2.4491-1.5532s1.4782 0.69892 1.4782 1.5532c0 0.85424-1.1021 1.5532-2.4491 1.5532s-2.0122-0.69892-1.4782-1.5532zm6.2836-9.319c-0.53398-0.85424-0.22225-1.5532 0.69274-1.5532 0.91498 0 1.6636 0.69892 1.6636 1.5532 0 0.85424-0.31173 1.5532-0.69273 1.5532-0.38101 0-1.1296-0.69892-1.6636-1.5532zm-27.491-4.4762c0-0.85424 0.70691-1.9851 1.5709-2.5131 0.864-0.52795 1.5709-0.26098 1.5709 0.59326s-0.7069 1.9851-1.5709 2.5131c-0.86399 0.52795-1.5709 0.26098-1.5709-0.59326zm32.336-2.2934c0.54421-1.4022 1.6208-2.5494 2.3923-2.5494 2.0201 0 1.7364 0.89908-0.98948 3.1358-2.0003 1.6414-2.2302 1.5453-1.4028-0.58641zm-6.3035-1.8838c-1.6636-1.2027-2.6712-2.5362-2.2392-2.9633 0.432-0.42712 2.1465 0.20744 3.8101 1.4101s2.6712 2.5362 2.2392 2.9633c-0.432 0.42712-2.1466-0.20744-3.8101-1.4101zm9.3132-8.4314c-0.53398-0.85424-0.26396-1.5532 0.60004-1.5532 0.86399 0 2.0078 0.69892 2.5418 1.5532 0.53398 0.85424 0.26396 1.5532-0.60003 1.5532-0.864 0-2.0078-0.69892-2.5418-1.5532zm-145.18-79.87c-0.06818-1.6373 0.30306-2.5546 0.82507-2.0385 0.52199 0.5161 0.57779 1.8557 0.12394 2.9769-0.50146 1.239-0.8737 0.87098-0.94908-0.93837h0.000062zm-10.335-22.62c-1.728-0.72508-4.4801-1.7426-6.1157-2.2612-1.6357-0.51858-2.5957-1.3168-2.1334-1.7739 0.46227-0.45705 3.3911 0.22266 6.5084 1.5105 4.9071 2.0272 5.6679 2.0394 5.6679 0.091 0-1.2378 0.7069-2.2505 1.5709-2.2505 1.8312 0 1.9038 0.44146 0.61738 3.7559-1.0623 2.7371-1.6075 2.8198-6.1155 0.92823v-0.00003zm159.81-12.45c0-2.9898 0.32329-4.213 0.71842-2.718 0.39511 1.4949 0.39511 3.9411 0 5.4361-0.39513 1.4949-0.71842 0.2718-0.71842-2.718zm-2.5657-7.4013c2.0994-1.3879 2.3014-6.6886 0.34855-9.1466-1.7394-2.1893-1.0641-20.022 0.89816-18.823 0.77183 0.47163 2.5254 14.856 2.5254 19.931 0 7.7615-0.43669 9.2235-2.7491 9.2035-1.6938-0.014-2.0865-0.46181-1.023-1.1649zm-153.19-11.89c-0.06818-1.6373 0.30306-2.5546 0.82507-2.0385 0.52199 0.5161 0.57779 1.8557 0.12394 2.9769-0.50146 1.239-0.8737 0.87098-0.94908-0.93837h0.000062zm154.78-18.21c0.48273-2.2559 0.22838-4.4985-0.56521-4.9834-0.8431-0.51518-0.45271-4.889 0.93914-10.522 1.8573-7.5167 2.6649-8.985 3.666-6.6653 0.77826 1.8032 0.99886-0.38974 0.56008-5.5673-0.41926-4.947-0.23305-6.9558 0.44239-4.7727 1.0985 3.5504 1.2753 3.4186 3.04-2.2663 1.1322-3.6473 1.293-6.3907 0.40652-6.9325-1.5918-0.97266 6.3668-29.955 10.28-37.438 2.1898-4.1867 1.8868-5.2105-1.3759-4.6501-2.0072 0.34474 0.74195-3.4197 4.8511-6.6425 2.0724-1.6254 3.3238-3.8844 2.841-5.1284-0.5252-1.3532-0.18927-1.8118 0.85826-1.1717 1.1491 0.70214 1.369-0.04551 0.66161-2.2491-0.60299-1.8784-0.37591-3.3008 0.52694-3.3008 0.87262 0 1.3143-1.3978 0.98151-3.1063-0.33278-1.7085 0.0613-3.1063 0.87565-3.1063 0.81439 0 1.5304 1.2231 1.5911 2.718 0.0938 2.3077 0.30111 2.249 1.3735-0.38829 1.531-3.765-0.69946-8.5424-3.9883-8.5424-1.3166 0-1.9271-0.74657-1.3567-1.659 0.5704-0.91248 2.0746-1.2654 3.3428-0.78427 1.6777 0.63652 2.1693-0.07502 1.8047-2.6121-0.42189-2.9366-1.7406-3.6271-8.3555-4.3751-4.32-0.4885-12.096-2.8919-17.28-5.3408-8.6136-4.0691-9.0486-4.5036-5.0501-5.0446 2.4064-0.32559 8.7685 0.79239 14.138 2.4844 5.3696 1.692 13.549 3.464 18.176 3.9376 4.6274 0.47368 9.2515 1.5488 10.276 2.3891 1.287 1.056 2.4222 0.64104 3.6759-1.3438 0.99763-1.5794 4.0814-3.9901 6.853-5.3571 5.5691-2.7469 17.913-3.4512 16.338-0.93228-0.53398 0.85424-2.2318 1.5532-3.7729 1.5532s-5.8059 1.5726-9.4773 3.4946c-5.5198 2.8897-8.1474 6.0487-15.18 18.25-12.234 21.226-20.273 38.339-22.616 48.148-1.1226 4.6983-4.4112 15.042-7.3081 22.986-2.8969 7.9441-5.267 16.282-5.267 18.528 0 4.4421-2.2935 12.489-5.6534 19.836-1.9791 4.3275-2.0684 4.3672-1.2533 0.55772zm1.5722-11.786c-0.52201-0.5161-0.89327 0.40125-0.82507 2.0385 0.0754 1.8094 0.44762 2.1774 0.94908 0.93837 0.45379-1.1212 0.39799-2.4608-0.12394-2.9769h-0.00007zm36.75-110c0-0.3767-0.7069-0.68491-1.5709-0.68491-0.86399 0-1.5709 0.74017-1.5709 1.6448 0 0.90465 0.70691 1.2129 1.5709 0.68491 0.864-0.52795 1.5709-1.2681 1.5709-1.6448zm-207.23 85.642c-0.06818-1.6373 0.30306-2.5546 0.82507-2.0385 0.52199 0.5161 0.57779 1.8557 0.12394 2.9769-0.50146 1.239-0.8737 0.87098-0.94908-0.93837h0.000062z"/>
      <path id="path10870" d="m72.54 135.84c18.254 38.64 15.932 55.485 24.125 89.861 30.345-8.2762 29.262-25.547 79.667-33.282-2.1891-8.0157-4.9541-20.206-7.0012-37.296-6.3307-52.851-105.7-29.051-96.79-19.284z" fill="#ede98e"/>
      <path id="path10872" d="m44.769 192.98c14.225 0.12875 18.463 3.0784 22.441 6.1017 4.3286-5.7048 5.761-14.273 5.6104-24.407-10.614-29.47-18.709-62.68-26.368-96.526-15.8 19.932-20.202 53.586-1.683 114.83z" fill="#ede98e"/>
      <path id="path10874" d="m220.65 176.34c-8.1536-6.3204-13.22-7.9818-19.362-21.901-6.181-14.007-18.885-10.87-32.814-24.693 3.0507-7.4765 6.1446-8.0831 10.66-8.3205l11.221-3.8829c-6.1576-21.923 1.4724-27.52 3.3662-38.829 8.8578 4.2865 12.16 14.702 12.904 18.86 2.702 24.981 2.0086 30.605 10.66 43.821-6.3111-2.6762-11.977-4.5545-12.391 0.0573 8.876 15.212 10.875 23.625 15.757 34.889z" fill="#ede98e"/>
      <path id="path10876" d="m177.45 152.48c0.60054 2.9688 14.991 26.915 13.103 46.38-1.795 18.506 9.8994 34.052 9.8994 34.052 7.0877 3.0614 13.924 0.42886 21.49 12.325 2.1517 3.3832 2.7778 9.0655 7.6839 13.191 2.4741-17.611 4.2649-34.32-22.148-68.835-8.1652-10.67-19.026-23.041-33.395-37.667l3.3662 0.5547z" fill="#ede98e"/>
      <path id="path10878" d="m170.16 227.92c-10.055 27.043-33.101 42.157-33.101 42.157-9.7499 44.91 15.739 42.683 29.174 56.579l10.66 0.5547-13.465-20.524c-2.5714-31.233 3.9454-47.489 10.099-64.345l19.075-3.8829c4.355 3.982 5.5021 15.694 11.711 24.009 4.553 6.0972 3.468 15.599 5.1203 23.695l8.9766 7.2111c2.1883 9.8429 5.6587 24.909 1.1221 28.844 34.844 3.8829 24.919 6.1017 22.441 9.9846 7.7392 56.876 64.332 107.45 103.23 160.31l-6.1714 4.4376c-74.42-42.81-146.72-88.78-238.44-105.95 4.19-29.3-19.197-43.04-35.904-65.45-5.2253-14.792 0.27627-35.686 1.6831-50.478 12.548-19.397 32.975-31.003 51.054-44.931 11.225-4.2759 21.237-15.234 32.391-10.353 8.6574 3.7889 12.435 2.7725 20.346 8.1339z" fill="#ede98e"/>
      <path id="path10880" d="m51.221 399.93s7.8545 9.9846 10.099 9.9846c2.2441 0 16.831-10.817 16.831-10.817 3.8645-1.421 4.0129-9.2238 3.3662-16.641-17.385-16.769-34.328-23.493-34.223-82.373-8.3068 23.216-22.849 46.649-5.0493 74.052l-10.099-8.3205 11.221 31.063 7.8545 3.0508z" fill="#ede98e"/>
      <path id="path10884" fill="#333" d="m354.46 490.85c0.98954 13.184 6.2804 3.838 7.584 6.3314-1.7978-4.239-2.0338-3.8357-7.584-6.3314z"/>
      <path id="path10886" d="m4.3733 15.473-1.9836 16.947c21.771 9.217 25.143 7.062 33.614 17.31 22.161-4.905 41.023 25.359 63.184 44.511 12.322-36.529 41.032-53.807 65.642-79.045l-160.46 0.277z" fill="#2f573c"/>
      <path id="path10888" d="m4.3733 15.473v19.692c10.94 3.436 21.881 9.817 32.821 16.919 22.161-4.905 39.833 23.005 61.994 42.157 15.222-28.881 41.072-53.72 65.642-79.045l-160.46 0.277z" fill="url(#linearGradient3292)"/>
    </g>
  </g>
  <g id="layer5" opacity=".087558">
    <g id="g5359" fill="url(#cloth_bitmap)">
      <g id="g4459" transform="matrix(1.1549 0 0 1.1419 -395.35 -285.49)">
        <g id="g4461" fill="url(#cloth_bitmap)">
          <path id="path4463" stroke="#000" stroke-width="1px" d="m656.43 738.79c31.389 16.72 60.029 4.1498 87.857-8.75-11.395 10.268-24.282 18.862-34.286 23.929 8.4537 5.3236 9.9902 8.8843 37.143 10.536-50.364 7.0801-105.58-11.006-90-16.964l-0.71429-8.75z"/>
          <path id="path4465" d="m672.86 753.79c9.7115 2.3246 15.821 0.0179 22.321-1.7857 7.8249 8.1385 19.948 10.352 26.959 11.497-7.516-2.8237-27.613 1.4068-49.28-9.7111z"/>
        </g>
      </g>
      <path id="path4467" d="m33.655 53.826-3.6467 75.439c3.9032 45.966 16.82 76.336 28.893 108.17l3.3662 19.969-4.4883 21.633-8.9766 21.633-12.062 23.159-4.9091 20.801 0.7013 32.45 12.904 30.786 32.119 42.712 48.67 57.689 95.236 51.032 66.342 24.129 19.075 3.8829 51.335-9.5686s9.1168-3.8829 9.8181-4.2989c0.70128-0.41603 21.88-26.071 21.88-26.071l5.8909-14.006 0.84155-35.639-32.961-27.042-24.826-37.165-3.9272-15.532-13.465-10.539-16.691-15.948-16.551-31.895-18.654-16.918-22.021-10.955-21.179-10.262-0.98182-10.955 4.2078-34.669v-31.202l-1.4026-18.998-5.8909-38.274-0.7013-18.444-0.84155-15.254 2.6649-15.948 5.3298-18.305 5.0493-19.969 3.5065-14.7 15.008-37.304 11.08-19.831-42.218-13.868 1.8234 2.2188-0.14028 0.5547h-1.1221l-57.085-0.27735-22.455 24.107-47.368 53.796-58.093-41.154-3.5065 27.319-2.6649 44.653-1.1221 6.379"/>
      <path id="path4471" d="m54.974 82.67c7.9598 3.8675 31.524 13.667 31.979 13.867 4.1128-2.2646 8.532-4.6051 18.514-8.3205 19.732 2.1807 34.281 21.441 52.737 23.297 3.4703-12.938 6.1877-22.546 10.28-28.853 8.5758-13.219 12.081-19.095 5.9904-29.39-25.61-12.941-18.23-5.963-37.07-12.205l-36.45 48.148c-1.253 7.444-43.181-30.175-43.009-24.138l-1.8449 14.821-1.1221 2.7735z"/>
      <path id="path4475" stroke="#000" stroke-width="1.562px" d="m291.48 365.75c-3.0161 1.56 5.5621 18.988 19.299 39.459 0.58164 0.86677 8.3803 3.4133 8.7603 4.4751 14.125 39.462 50.953 81.792 48.109 80.011 8.9216 10.019 20.545 9.7444 29.952 17.847l-3.7688-11.571c-31.727-27.088-57.047-58.947-78.831-92.777-10.422-16.186-15.457-31.871-29.075-42.935l5.554 5.4913z"/>
      <path id="path4477" d="m84.709 419.37-4.4883 25.516c18.91 15.369 26.282 46.841 56.68 46.175 2.6014-0.057-27.169-17.545-24.208-18.103 2.5008-0.47139 29.823 17.173 32.608 16.304l14.587 1.1094c1.9844-16.962 20.814-13.105 33.662-16.641l92.01 44.376-79.667-19.969c-6.5738 0.64519-23.416-5.1076-21.584 2.396 6.3228 25.906-20.819-3.0172-41.252 5.3698 26.067 22.822 36.348 25.752 46.005 29.954-0.27717-7.2524-2.0206-16.679 3.3662-15.532 8.4507 0.0805 15.452 4.4599 22.441 8.8752-7.3911 6.2072-5.81 9.0879-7.8545 13.313 11.755 7.2996 17.304 6.4174 24.966 8.3205 0.57914-1.5151 1.9536-2.8992-1.7568-5.1211l-7.6088-9.5767 9.2161 5.5298-0.13101-8.0276 20.197 18.86 15.098 0.622c10.838 3.5706 12.898 2.8021 11.831 0.48741l7.8545-14.422 7.8545 21.079 5.6104-15.532 5.6104 2.2188c21.754 0.47613 17.524-1.3833 24.686-2.2188 5.7022-16.064-1.7429-6.4939 0.56104-12.041-5.1214 2.9487-14.482 7.5097-10.66-14.585l-40.03-18.81-15.6-8.68-25.16-10.24c-54.96-32.29-95.01-27.03-144.85-65.18l-9.9882 4.1636z"/>
      <path id="path4481" stroke="#000" d="m300.34 588.02c-2.16-0.68393-6.9543-1.3132-10.654-1.3983s-9.355-1.2677-12.567-2.6278c-3.2122-1.3601-9.1676-3.475-13.234-4.6997-4.0666-1.2247-13.256-4.891-20.422-8.1474-7.1653-3.2563-16.916-7.1748-21.668-8.7077s-9.3468-3.3168-10.211-3.9642c-0.86399-0.64744-7.769-3.7019-15.344-6.7877-7.5755-3.0858-21.36-10.048-30.633-15.472-9.2725-5.424-20.04-11.679-23.928-13.899-13.16-7.52-46.307-42.76-69.575-73.98-5.367-7.2-11.918-15.93-14.559-19.41-18.64-24.56-22.038-31.08-25.927-49.81-2.2734-10.949-2.0001-41.431 0.38452-42.888 0.8989-0.54928 2.2064-3.7048 2.9056-7.0122 2.1028-9.9474 5.7808-18.421 12.371-28.502 8.0242-12.275 13.556-34.19 12.277-48.636-0.77914-8.798-7.8093-32.4-15.056-50.546-1.5904-3.9826-4.1508-12.134-5.6897-18.113-1.5389-5.9797-4.0996-15.765-5.6903-21.744-1.5907-5.9797-3.2961-15.765-3.7897-21.744-0.85111-10.31 1.3638-61.484 3.3429-77.236 7.1336 0.44885-3.2678 4.4773 2.5697-9.6506 2.4355 3.0613 1.0328-1.344 1.7525-3.1983 1.3262-3.417 6.85-5.3078 16.169 2.1964 19.981 16.089 75.483 74.135 38.441 33.307l4.4205 5.9925 5.1217-10.601c18.55-14.015 37.808-60.177 62.129-67.3 3.4429 16.67-47.137 52.527-57.078 70.964-4.5103 9.392-6.0368 11.26-9.1996 11.26-2.1648 0-5.106-1.6516-6.854-3.8487-13.827-17.389-38.987-38.065-42.31-34.779-1.1092 1.0967-2.662 0.49044-4.9424-1.9296-2.7013-2.8667-3.325-3.0469-3.325-0.96035 0 1.4126-1.1589 5.9126-2.5753 10-1.4164 4.0875-2.4711 10.402-2.3437 14.033 0.1274 3.6305-0.33448 6.6009-1.0264 6.6009-1.2853 0-1.1777 39.721 0.16359 60.382 0.43779 6.7439 1.5496 11.95 2.7026 12.655 1.0807 0.66037 1.5716 2.6606 1.0951 4.4622-0.47501 1.7959-0.1812 3.2653 0.6529 3.2653s1.1269 0.62335 0.65065 1.3852c-0.84048 1.3446 2.5327 12.696 5.9891 20.154 0.93748 2.0229 3.1309 4.2501 4.8743 4.9493 2.7443 1.1006 2.7933 1.2845 0.36544 1.3697-2.3577 0.0828-2.5228 0.6185-1.037 3.3636 0.97207 1.7958 1.4304 4.5392 1.0185 6.0964-0.54028 2.0427-0.08624 2.5799 1.6302 1.9287 1.912-0.7254 2.2527 0.16715 1.7356 4.5467-0.49369 4.181-0.08326 5.4122 1.7631 5.29 1.6001-0.10593 2.4066 1.2286 2.4066 3.9818 0 2.2776 0.53018 4.6656 1.1782 5.3066 0.648 0.64102 1.1782 2.3969 1.1782 3.902s1.0616 3.7861 2.3591 5.069c1.8102 1.7898 1.993 3.2846 0.78545 6.4247-2.0047 5.2132-1.9807 5.5237 0.38999 5.0549 2.0804-0.41137 2.2301 4.6829 0.3196 10.872-0.80963 2.6228-0.44518 3.4946 1.4608 3.4946 1.3968 0 2.5396 0.69892 2.5396 1.5532 0 0.85424-0.75135 1.5532-1.6696 1.5532-0.9183 0-1.4485 1.5726-1.1782 3.4946 0.30334 2.1569-0.26019 3.346-1.4722 3.1063-1.08-0.21356-1.9636 0.60294-1.9636 1.8144s-0.47358 3.4229-1.0524 4.9143c-0.7543 1.9435-0.48904 2.3673 0.93646 1.4963 1.3918-0.85047 1.7976-0.34411 1.3518 1.6866-0.35037 1.5961-1.3769 2.7608-2.2813 2.5882-0.90434-0.17258-2.4627 2.3873-3.4631 5.6886s-2.8332 7.9354-4.0729 10.298-1.8275 4.9779-1.3063 5.8118c0.56882 0.90999 0.11593 1.0079-1.1328 0.24485-1.5233-0.93082-1.8035-0.5575-1.0462 1.3939 0.63639 1.6397 0.41266 2.2853-0.58147 1.6778-1.0304-0.62965-1.2603 0.4135-0.63433 2.8792 0.77939 3.0703 0.27748 4.0875-2.437 4.9393-2.3886 0.74957-3.1828 1.9641-2.636 4.0315 0.43041 1.6273 0.21565 2.6123-0.47722 2.1889-1.6231-0.99182-2.8042 2.1589-5.8178 15.521-2.8351 12.57-3.6932 24.074-1.7957 24.074 1.7617 0 1.6278 6.4201-0.19328 9.2669-0.9169 1.4334-0.85787 2.9914 0.15929 4.2032 0.88896 1.059 1.1411 2.6856 0.56036 3.6147-0.58076 0.92909-0.24514 2.6551 0.74583 3.8357s1.682 3.072 1.5357 4.2031c-0.40041 3.0953 1.8239 9.0459 3.3813 9.0459 0.75304 0 1.2008 1.5629 0.99496 3.4731-0.24432 2.2677 0.77871 3.9813 2.9477 4.9372 3.3573 1.4797 15.485 18.771 15.54 22.155 0.01618 1.0075 0.66386 2.4054 1.4394 3.1063 0.81487 0.73657 0.92422 0.29119 0.25906-1.0552-0.63301-1.2814 0.62539-0.27367 2.7965 2.2393s3.6825 4.9928 3.3588 5.5107c-0.32373 0.5179 2.225 4.4027 5.6638 8.6328s7.3104 9.636 8.6035 12.013c1.2931 2.3771 2.9478 3.9573 3.6771 3.5117 1.6833-1.0286 5.3665 3.2435 4.2863 4.9715-0.44439 0.71093 1.779 3.712 4.941 6.669 3.1619 2.957 4.7778 4.1364 3.5907 2.6208-1.187-1.5156-1.7736-3.1359-1.3033-3.6008 0.4702-0.46489 2.1615 1.0076 3.7584 3.2723 1.5969 2.2646 4.8676 6.4462 7.2682 9.2924s4.1679 6.1082 3.9272 7.2491c-0.24063 1.1409 0.34942 1.9314 1.3112 1.7568 0.9618-0.1746 5.4281 2.7877 9.9251 6.5829s9.3594 7.555 10.805 8.3551c1.446 0.80008 2.259 1.8206 1.8066 2.2678-0.45236 0.44724-4.9545-2.6731-10.005-6.934-5.0503-4.2609-9.5938-7.3404-10.097-6.8432-0.91945 0.90906 7.0479 8.2898 20.165 18.68 17.609 13.949 61.026 36.512 90.169 46.86 6.1346 2.1781 17.499 6.7766 25.255 10.219 7.7554 3.4423 16.06 6.3251 18.454 6.4063 2.3946 0.0812 4.3554 0.5959 4.3573 1.1438 0.008 2.3165 12.733 5.7304 25.138 6.7445 20.814 1.7013 54.826-4.5368 66.255-12.152 5.3339-3.5539 18.401-19.22 18.509-22.191 0.035-0.96319 1.0853-2.5896 2.3339-3.6141 4.608-3.7811 7.6194-17.131 7.3531-32.598-0.22941-13.329-0.60952-15.11-3.7234-17.445-1.9074-1.4306-3.9293-2.479-4.4933-2.3297-1.5425 0.40819-15.545-10.194-15.545-11.77 0-0.75268 3.1811 1.2087 7.069 4.3586 3.888 3.1499 7.069 4.9528 7.069 4.0064 0-0.94644-2.6509-3.4006-5.8909-5.4538s-8.3003-6.2283-11.245-9.278c-2.9449-3.0497-6.0585-5.1147-6.919-4.5889-0.86058 0.52587-1.0973 0.20839-0.52603-0.7055 0.57127-0.9139-0.60267-3.6428-2.6088-6.0643s-5.2004-6.9451-7.0985-10.052c-3.1718-5.1926-8.1258-10.516-8.1258-8.7324 0 0.41426 2.1298 3.403 4.733 6.6416s4.4067 6.2111 4.0078 6.6054c-0.8657 0.85591-8.6198-7.6127-8.6912-9.492-0.0864-2.2784-5.8725-8.7252-6.9102-7.6992-0.54669 0.54052-0.99399-0.1821-0.99399-1.6058 0-3.4136 0.77455-3.2704 4.9029 0.906l3.4544 3.4946-3.3953-5.6228c-1.8674-3.0925-3.8422-8.8469-4.3885-12.788-0.78694-5.6766-2.0699-7.9767-6.1767-11.074-6.5503-4.9397-6.8622-4.9016-6.1388 0.75053 0.69889 5.4599-1.8312 6.2116-3.9208 1.1649-0.79578-1.922-4.6547-6.5927-8.5753-10.379-3.9206-3.7865-9.4352-11.475-12.255-17.085-6.8363-13.603-6.8779-13.743-3.0983-10.427 1.8052 1.5835 3.7125 4.7286 4.2384 6.9892 1.2792 5.4989 7.9194 13.52 9.3276 11.268 0.59185-0.94682 0.25184-1.7215-0.75557-1.7215-1.01 0-1.412-1.0813-0.89616-2.4104 0.53645-1.3822 0.27311-2.0056-0.61737-1.4615-1.4249 0.87067-2.2505-1.2671-1.6993-4.3997 0.19462-1.106-1.5686-3.5799-9.2082-12.919-0.79904-0.97679-1.3186-2.0335-1.1545-2.3484 0.16407-0.31481-0.53377 0.3735-1.5507 1.5296-1.5079 1.7142-2.2947 1.2499-4.2648-2.5167-1.3286-2.5403-5.2682-7.2912-8.7545-10.558-7.3095-6.8483-8.2984-9.6901-2.0188-5.8016l4.32 2.675-3.8518-4.2382c-2.1185-2.331-4.703-3.9153-5.7433-3.5206-2.3819 0.90373-7.3181-4.3121-5.7246-6.0489 0.64988-0.7083 0.32672-0.80264-0.71812-0.20963-2.3342 1.3248-8.3111-2.1535-8.3111-4.8367 0-1.0759-1.7673-1.9561-3.9272-1.9561-2.16 0-3.9272-0.56796-3.9272-1.2621 0-1.3809-14.547-8.0357-17.688-8.0914-1.0718-0.019-3.5682-1.2668-5.5477-2.7729-3.3504-2.5491-3.5463-3.593-2.8353-15.109 0.42011-6.8037 1.3602-17.438 2.089-23.631 0.72885-6.1932 0.84618-11.26 0.26073-11.26-1.6083 0-0.85237-5.2731 0.94284-6.5772 0.94617-0.68729 0.71349-1.1505-0.58506-1.1649-1.7382-0.0191-1.777-0.47528-0.20039-2.3535 1.3511-1.6096 1.4106-2.3297 0.19234-2.3297-0.98354 0-1.7632-2.5214-1.7632-5.702 0-3.1361-1.1738-6.9845-2.6085-8.5519s-2.1883-3.2653-1.6748-3.7731c1.3495-1.3343 6.9425 4.2792 7.9026 7.9315 0.44909 1.7085 0.74329 0.18057 0.65376-3.3954-0.0895-3.5759-0.81696-6.3716-1.6165-6.2126-0.79956 0.15897-1.6623-0.93741-1.9172-2.4364-0.25493-1.499 0.18136-2.3314 0.9695-1.8498 0.78815 0.4816 1.4222-1.7866 1.409-5.0404-0.0179-4.413-0.41435-5.3241-1.5603-3.5863-1.0525 1.5962-1.225 0.006-0.54787-5.0478 0.662-4.9415 0.41493-7.3775-0.74823-7.3775-0.98879 0-1.6442-2.429-1.5221-5.6409 0.18061-4.75-4.0198-34.828-2.453-32.709 3.847 5.2017 14.043 86.1 12.254 99.54-1.849 13.897-4.0747 26.883-5.6825 33.154-2.0506 7.9979-0.71954 10.062 8.6281 13.379 15.209 5.3974 24.561 9.9855 34.129 16.744 10.647 7.5198 24.396 22.02 28.706 30.275 1.3963 2.6739 4.2956 6.926 6.443 9.4492s5.3927 8.3731 7.2118 13c3.5115 8.931 6.6221 12.295 11.369 12.295 4.9528 0 13.795 9.8509 14.842 16.534 1.1034 7.0471 5.7307 16.836 10.539 22.295 1.8811 2.1356 6.5076 8.4259 10.281 13.978 3.7734 5.5526 10.362 12.891 14.642 16.308 4.2799 3.417 11.404 9.6852 15.832 13.929l8.0502 7.7168 0.59267 15.83c0.84208 22.492-1.468 29.03-18.079 51.171-7.4913 9.9852-9.219 11.364-18.916 15.101-5.8692 2.2618-19.673 5.5291-30.674 7.2608-21.356 3.3616-24.899 3.5436-31.051 1.5954zm-188.51-101.43c0-0.25954-2.6509-2.8805-5.8909-5.8244l-5.8909-5.3524 5.4136 5.8244c5.0388 5.4212 6.3682 6.5385 6.3682 5.3524zm-23.275-26.27c-1.1272-1.1145-1.8589-1.2062-1.8589-0.23298 0 2.0731 1.8578 3.9099 2.9062 2.8734 0.4464-0.44135-0.02482-1.6295-1.0473-2.6404zm-20.71-26.65c0-0.32251-1.2371-1.5456-2.7491-2.718-2.4915-1.9319-2.5471-1.877-0.59311 0.58641 2.0522 2.5872 3.3422 3.4099 3.3422 2.1316zm-7.8545-10.822c0-0.29472-1.5905-1.8673-3.5345-3.4946l-3.5345-2.9588 2.9925 3.4946c2.8123 3.2841 4.0765 4.2017 4.0765 2.9588zm232.49-55.89c0-0.2782-1.944-2.2002-4.32-4.2712l-4.32-3.7653 3.8084 4.2712c3.5595 3.9921 4.8316 4.9834 4.8316 3.7653zm-66.508-63.562c-0.43579-1.0678-0.79235-0.19414-0.79235 1.9414 0 2.1356 0.35656 3.0092 0.79235 1.9414 0.43578-1.0678 0.43578-2.8151 0-3.8829zm4.7127-37.276c-0.43579-1.0678-0.79235-0.19414-0.79235 1.9414 0 2.1356 0.35656 3.0092 0.79235 1.9414 0.43578-1.0678 0.43578-2.8151 0-3.8829zm48.443 311.02c-0.53398-0.85424 0.13117-1.5532 1.4782-1.5532s2.4491 0.69892 2.4491 1.5532c0 0.85424-0.66518 1.5532-1.4782 1.5532-0.81301 0-1.9151-0.69892-2.4491-1.5532zm-10.985-3.0885c-0.55035-0.88042 0.0803-1.1408 1.4782-0.6104 2.7215 1.0325 3.2194 2.1458 0.95976 2.1458-0.81301 0-1.9101-0.69092-2.438-1.5354zm69.894-3.809c0-0.37671 0.70691-1.1169 1.5709-1.6448 0.864-0.52795 1.5709-0.21974 1.5709 0.68491 0 0.90466-0.7069 1.6448-1.5709 1.6448-0.86399 0-1.5709-0.30821-1.5709-0.68491zm-42.414-3.1116c0-2.4618 9.073-7.9417 10.619-6.4136 0.4957 0.49012 0.60673 1.0682 0.24674 1.2846-0.36 0.21645-2.952 1.9847-5.76 3.9294-4.0069 2.775-5.1054 3.0332-5.1054 1.1995zm-48.305-1.6254c-2.808-1.2067-5.1054-2.9266-5.1054-3.8221 0-2.2355 0.5843-2.0989 6.9793 1.6316 8.357 4.8751 7.2862 6.1269-1.8738 2.1905zm10.385-0.86758-3.7086-3.1832 4.7127 2.1935c2.592 1.2064 5.7731 2.5836 7.069 3.0605 1.6143 0.59399 1.298 0.90567-1.0042 0.98967-1.8483 0.0674-5.0293-1.3098-7.069-3.0605zm36.349-2.8462c0-0.85424 0.70691-1.9851 1.5709-2.5131 0.864-0.52795 1.5709-0.26098 1.5709 0.59326s-0.7069 1.9851-1.5709 2.5131c-0.86399 0.52795-1.5709 0.26098-1.5709-0.59326zm26.021-0.6386c0.58992-1.5318 1.4683-2.3938 1.952-1.9156 0.48367 0.47821 0.001 1.7314-1.0726 2.785-1.5514 1.5225-1.7319 1.3441-0.87938-0.86946zm7.9709-0.32131c0.49733-1.2814 2.4191-2.3075 4.2707-2.2803 3.298 0.0485 3.3045 0.0958 0.31713 2.3297-3.9126 2.926-5.735 2.9063-4.5878-0.0494zm-94.864-1.8952c-1.08-0.38134-1.9636-1.8333-1.9636-3.2265 0-2.3056 0.23853-2.2973 2.6556 0.0924 2.84 2.8079 2.5177 4.2674-0.69195 3.1341v0.00003zm79.723-3.208c0-0.6712 1.2371-1.3251 2.7491-1.4531 1.512-0.12798 4.8698-0.73991 7.4618-1.3598 4.2642-1.0198 4.5075-0.88148 2.5567 1.4531-2.1584 2.583-12.768 3.7129-12.768 1.3598zm-9.0327-2.2284c-1.944-0.92697-3.5345-2.2775-3.5345-3.0012 0-2.2683 2.5402-1.441 5.4982 1.7905 3.1947 3.4902 3.03 3.5918-1.9636 1.2107zm-103.82-7.3897c-4.6112-2.5133-9.913-5.0449-11.782-5.6258-4.6695-1.4515-20.178-10.174-19.421-10.923 0.80546-0.79636 13.4 4.979 18.239 8.3635 3.7614 2.631 3.7808 2.6201 2.9519-1.6668l-0.83432-4.3152 3.0002 3.1839c1.6501 1.7512 3.6795 3.1839 4.5099 3.1839 0.83033 0 1.333 0.85707 1.117 1.9046s1.241 2.1501 3.2379 2.4502c1.9968 0.3001 4.0164 1.5398 4.488 2.7549s1.8422 2.2093 3.0457 2.2093c1.2036 0 2.1883 0.69892 2.1883 1.5532 0 2.361-1.6226 1.8968-10.74-3.0727zm152.12 0.42732c0-0.80993 1.8632-3.167 4.1404-5.238 3.6947-3.36 3.9576-3.4172 2.4421-0.53129-2.0281 3.8621-6.5826 7.8538-6.5826 5.7692zm-3.1611-6.638c1.7411-3.2166 7.8935-7.2452 7.8466-5.138-0.0321 1.4438-7.0344 8.2087-8.4968 8.2087-0.55661 0-0.26405-1.3818 0.65014-3.0707zm-146.27-2.6196c-1.955-2.3431-1.8264-2.4104 1.3786-0.72194 3.6554 1.9258 4.5555 3.306 2.156 3.306-0.75819 0-2.3487-1.1628-3.5345-2.584zm-0.58507-5.2871c-2.592-1.6415-6.0912-2.9883-7.776-2.9928-2.272-0.006-2.606-0.46025-1.2932-1.7582 2.4246-2.3973 8.798-0.57035 14.1 4.0418 5.3142 4.6228 1.9071 5.1031-5.0309 0.70922zm114.57-3.1674c-0.72687-1.1628 0.0305-1.3727 2.339-0.64827 3.6929 1.1588 7.9758-1.3687 7.9758-4.7069 0-1.9736-5.7449-4.7668-8.364-4.0666-0.71221 0.19042-0.81182-0.42667-0.22135-1.3713 0.59245-0.94776 2.7569-1.2998 4.8295-0.78548 2.2209 0.55112 3.7559 0.24771 3.7559-0.74238 0-0.92093 0.7551-1.213 1.678-0.64908 0.9229 0.56395 1.3418 1.8917 0.93079 2.9505-0.41096 1.0589-0.14138 2.8942 0.59889 4.0786 1.9554 3.1281-2.82 7.6604-8.0711 7.6604-2.4071 0-4.8602-0.7738-5.4514-1.7196zm-157.77-4.4931c-0.92479-1.7085-2.6775-3.1063-3.8949-3.1063s-4.1969-1.7679-6.6211-3.9286l-4.4076-3.9286 7.069 3.409c7.7621 3.7432 12.567 7.3176 12.567 9.3485 0 2.4691-3.0294 1.316-4.7127-1.7939zm213.84 1.7473c0.65703-1.9488 2.9454-2.4013 2.9454-0.58244 0 0.64068-0.79527 1.427-1.7673 1.7473-0.97199 0.32033-1.5022-0.20386-1.1782-1.1649zm-153.75-14.33c-2.808-1.778-5.1054-3.9042-5.1054-4.725 0-1.5833 0.83402-1.1823 9.2519 4.4484 6.6424 4.4431 2.8349 4.6971-4.1465 0.27662zm12.6 2.3466c0.52199-0.5161 1.8769-0.57127 3.0109-0.12255 1.2532 0.4958 0.88092 0.86384-0.94909 0.93836-1.656 0.0674-2.5838-0.29965-2.0618-0.81575v-0.00006zm-51.283-4.9601c-0.42598-0.68147-0.19023-2.1737 0.5239-3.3162 1.0038-1.6059 1.7056-1.3248 3.0934 1.239 1.4561 2.69 1.3571 3.3162-0.5239 3.3162-1.2754 0-2.6674-0.55757-3.0934-1.239zm43.789-3.6244c-2.7188-1.665-3.6766-2.8895-2.2639-2.8942 2.7826-0.009 8.9514 4.0363 7.7596 5.0888-0.43065 0.38029-2.9037-0.60727-5.4957-2.1946zm-55.587 0.31364c-1.3506-0.82527-1.5112-1.6257-0.45578-2.2706 0.89653-0.54783 2.1032-0.23923 2.6814 0.68577 1.4428 2.3082 0.29533 3.1253-2.2256 1.5849zm-32.182-4.9604c-4.0737-2.6679-7.011-5.242-6.5272-5.7203 0.48378-0.47831 2.812 0.68161 5.1739 2.5776 2.3618 1.896 5.5314 3.8528 7.0433 4.3483 1.512 0.49556 2.7491 1.5184 2.7491 2.273 0 1.9795-0.28246 1.863-8.4391-3.4787zm111.12 1.624c-2.9341-2.901-3.9311-3.049-9.8767-1.4661-9.2768 2.4698-16.351-0.10825-22.199-8.09-4.9044-6.6938-4.9779-11.736-0.24967-17.116 3.9452-4.4888 5.3947-3.0617 1.7885 1.7609-3.2343 4.3252-3.2579 4.6691-0.68778 10.024 4.9546 10.323 12.492 13.181 22.768 8.633 5.4428-2.4093 6.481-2.5202 5.7409-0.61332-0.49692 1.2803-0.39549 2.3498 0.22538 2.3767 1.0836 0.0469 7.3095 7.717 6.264 7.717-0.28034 0-1.9783-1.452-3.7733-3.2267zm-43.469 0.55629 5.02-0.62013-7.0761-6.8971c-8.6267-8.4085-6.5662-9.2512 2.4024-0.98248 8.0615 7.4324 8.188 9.6918 0.52445 9.3684-5.6771-0.23954-5.7088-0.27105-0.87083-0.86868zm-60.787-3.5422c-3.024-1.6369-4.9329-3.0054-4.242-3.0412 1.6647-0.0862 10.526 4.4688 10.526 5.4108 0 1.0166-0.0919 0.98189-6.2836-2.3696zm40.058-6.2126c-1.5638-1.7085-4.6777-3.119-6.9198-3.1346-2.2421-0.0155-7.1872-2.1123-10.989-4.6595-5.0448-3.3798-6.0657-4.6312-3.778-4.6312 1.7241 0 4.3676 1.3469 5.8744 2.9932 1.5069 1.6462 5.3277 3.4369 8.4907 3.9792 5.2486 0.89992 12.82 5.414 12.82 7.6433 0 1.9015-2.7588 0.80241-5.4982-2.1904zm-58.234-1.5888c-3.3533-1.2486-9.6443-9.2834-7.2686-9.2834 0.73332 0 2.9935 1.7473 5.0228 3.8829 2.0292 2.1356 4.4499 3.8596 5.3792 3.8312 0.92939-0.0284-0.00088-1.4437-2.0673-3.1452-2.0664-1.7014-3.436-3.411-3.0435-3.799 0.39249-0.38806 3.1435 1.4304 6.1134 4.0411s4.2084 4.3827 2.7522 3.938c-1.4562-0.44479-2.87-0.23404-3.1418 0.46831-0.27183 0.70236-1.9578 0.73207-3.7465 0.066v0.00003zm239.67 0.0356c0-0.85423 0.31173-1.5532 0.69274-1.5532 0.381 0 1.1296 0.69893 1.6636 1.5532 0.53398 0.85424 0.22225 1.5532-0.69273 1.5532-0.91499 0-1.6636-0.69892-1.6636-1.5532zm-167.93-9.1572c-3.4758-3.5059-5.8174-6.3453-5.2036-6.3098 2.0846 0.12068 13.427 10.802 12.472 11.746-0.52197 0.51608-3.7928-1.9302-7.2686-5.4361zm-11.473 1.4176c3.8114-3.1418 7.361-2.7989 8.7763 0.84774 0.69661 1.7948 0.30296 1.8499-2.1957 0.30709-2.387-1.4738-3.46-1.469-4.9688 0.0227-1.0584 1.0464-2.6665 1.8793-3.5737 1.8509s-0.0243-1.3912 1.9618-3.0284v0.00005-0.00002zm57.472-0.71207c-0.47795-1.2314-0.63249-3.4003-0.34341-4.8198 0.35411-1.7388 1.1216-1.0084 2.3528 2.239 1.0557 2.7848 1.2007 4.8198 0.34341 4.8198-0.81606 0-1.8748-1.0076-2.3528-2.239zm-13.563-2.5477c-4.4738-2.5717-3.4448-6.3709 1.5709-5.8003 3.0372 0.34552 4.32 1.3754 4.32 3.4684 0 3.5983-2.1839 4.4628-5.8909 2.3319zm134.97-0.90819c-0.576-0.56948-1.0473-1.7576-1.0473-2.6404 0-0.97321 0.73168-0.88151 1.8589 0.23297 1.0224 1.0109 1.4937 2.199 1.0473 2.6404-0.44641 0.44136-1.2829 0.33653-1.8589-0.23297zm-140.86-9.8367c-3.0774-0.97442-3.2474-1.2373-0.78545-1.2146 1.728 0.016 5.2625 0.56249 7.8545 1.2146 4.2331 1.065 4.3131 1.1886 0.78545 1.2146-2.16 0.0158-5.6945-0.53065-7.8545-1.2146zm129.82-6.9892c-0.49732-1.2814-0.6595-2.3297-0.36041-2.3297 0.29908 0 1.4238 1.0484 2.4994 2.3297 1.1272 1.3428 1.2799 2.3297 0.36041 2.3297-0.87734 0-2.0021-1.0484-2.4994-2.3297zm-59.98-2.44c-0.5695-0.91107-0.69855-1.9896-0.28677-2.3967 0.41176-0.40713 1.1673 0.3383 1.6789 1.6565 1.0622 2.7368 0.15693 3.2182-1.3921 0.74023zm-216.53-16.38c-2.4285-3.0091-4.1435-5.74-3.8112-6.0685 0.33231-0.32856 2.5911 1.8646 5.0196 4.8738 2.4285 3.0091 4.1435 5.74 3.8112 6.0685-0.33231 0.32856-2.5911-1.8646-5.0196-4.8738zm232.31 2.5089c-1.2287-1.9657 0.85085-1.9657 3.9272 0 2.0307 1.2975 1.9892 1.5089-0.30001 1.5294-1.461 0.0124-3.0933-0.67515-3.6272-1.5294zm19.425-10.883c-6.6513-11.322-7.101-15.654-0.67368-6.4904 3.1842 4.5398 5.5609 9.4276 5.2815 10.862-0.34363 1.7642-1.8339 0.35041-4.6079-4.3713zm-260.56-66.67c0-0.79483-1.5905-1.748-3.5345-2.1182-3.0305-0.57711-2.9185-0.70325 0.78545-0.8846 2.8878-0.14134 4.32 0.56086 4.32 2.1182 0 1.2814-0.35345 2.3297-0.78545 2.3297s-0.78545-0.65031-0.78545-1.4451zm122.54-38.59c0-0.84605 1.7673-1.8723 3.9272-2.2805 2.16-0.40824 3.9272-0.14025 3.9272 0.59552 0 0.73578-0.64909 1.3378-1.4424 1.3378-0.79334 0-2.5606 0.42423-3.9272 0.94275-1.3667 0.51851-2.4848 0.25053-2.4848-0.59551zm13.353-3.4536c0.53398-0.85424 1.6361-1.5532 2.4491-1.5532s1.4782 0.69892 1.4782 1.5532c0 0.85424-1.1021 1.5532-2.4491 1.5532s-2.0122-0.69892-1.4782-1.5532zm6.2836-9.319c-0.53398-0.85424-0.22225-1.5532 0.69274-1.5532 0.91498 0 1.6636 0.69892 1.6636 1.5532 0 0.85424-0.31173 1.5532-0.69273 1.5532-0.38101 0-1.1296-0.69892-1.6636-1.5532zm-27.491-4.4762c0-0.85424 0.70691-1.9851 1.5709-2.5131 0.864-0.52795 1.5709-0.26098 1.5709 0.59326s-0.7069 1.9851-1.5709 2.5131c-0.86399 0.52795-1.5709 0.26098-1.5709-0.59326zm32.336-2.2934c0.54421-1.4022 1.6208-2.5494 2.3923-2.5494 2.0201 0 1.7364 0.89908-0.98948 3.1358-2.0003 1.6414-2.2302 1.5453-1.4028-0.58641zm-6.3035-1.8838c-1.6636-1.2027-2.6712-2.5362-2.2392-2.9633 0.432-0.42712 2.1465 0.20744 3.8101 1.4101s2.6712 2.5362 2.2392 2.9633c-0.432 0.42712-2.1466-0.20744-3.8101-1.4101zm9.3132-8.4314c-0.53398-0.85424-0.26396-1.5532 0.60004-1.5532 0.86399 0 2.0078 0.69892 2.5418 1.5532 0.53398 0.85424 0.26396 1.5532-0.60003 1.5532-0.864 0-2.0078-0.69892-2.5418-1.5532zm-145.19-79.87c-0.06818-1.6373 0.30306-2.5546 0.82507-2.0385 0.52199 0.5161 0.57779 1.8557 0.12394 2.9769-0.50146 1.239-0.8737 0.87098-0.94908-0.93837h0.000062zm-10.335-22.62c-1.728-0.72508-4.4801-1.7426-6.1157-2.2612-1.6357-0.51858-2.5957-1.3168-2.1334-1.7739 0.46227-0.45705 3.3911 0.22266 6.5084 1.5105 4.9071 2.0272 5.6679 2.0394 5.6679 0.091 0-1.2378 0.7069-2.2505 1.5709-2.2505 1.8312 0 1.9038 0.44146 0.61738 3.7559-1.0623 2.7371-1.6075 2.8198-6.1155 0.92823v-0.00003 0.00001zm159.81-12.45c0-2.9898 0.32329-4.213 0.71842-2.718 0.39511 1.4949 0.39511 3.9411 0 5.4361-0.39513 1.4949-0.71842 0.2718-0.71842-2.718zm-2.5657-7.4013c2.0994-1.3879 2.3014-6.6886 0.34855-9.1466-1.7394-2.1893-1.0641-20.022 0.89816-18.823 0.77183 0.47163 2.5254 14.856 2.5254 19.931 0 7.7615-0.43669 9.2235-2.7491 9.2035-1.6938-0.014-2.0865-0.46181-1.023-1.1649zm-153.19-11.89c-0.06818-1.6373 0.30306-2.5546 0.82507-2.0385 0.52199 0.5161 0.57779 1.8557 0.12394 2.9769-0.50146 1.239-0.8737 0.87098-0.94908-0.93837h0.000062zm154.77-18.21c0.48273-2.2559 0.22838-4.4985-0.56521-4.9834-0.8431-0.51518-0.45271-4.889 0.93914-10.522 1.8573-7.5167 2.6649-8.985 3.666-6.6653 0.77826 1.8032 0.99886-0.38974 0.56008-5.5673-0.41926-4.947-0.23305-6.9558 0.44239-4.7727 1.0985 3.5504 1.2753 3.4186 3.04-2.2663 1.1322-3.6473 1.293-6.3907 0.40652-6.9325-1.5918-0.97266 6.3668-29.955 10.28-37.438 2.1898-4.1867 1.8868-5.2105-1.3759-4.6501-2.0072 0.34474 0.74195-3.4197 4.8511-6.6425 2.0724-1.6254 3.3238-3.8844 2.841-5.1284-0.5252-1.3532-0.18927-1.8118 0.85826-1.1717 1.1491 0.70214 1.369-0.04551 0.66161-2.2491-0.60299-1.8784-0.37591-3.3008 0.52694-3.3008 0.87262 0 1.3143-1.3978 0.98151-3.1063-0.33278-1.7085 0.0613-3.1063 0.87565-3.1063 0.81439 0 1.5304 1.2231 1.5911 2.718 0.0938 2.3077 0.30111 2.249 1.3735-0.38829 1.531-3.765-0.69946-8.5424-3.9883-8.5424-1.3166 0-1.9271-0.74657-1.3567-1.659 0.5704-0.91248 2.0746-1.2654 3.3428-0.78427 1.6777 0.63652 2.1693-0.07502 1.8047-2.6121-0.42189-2.9366 7.9821 17.881 1.3673 17.133-0.26778-0.5821-9.3281 9.0279 3.5026-18.105 4.6274 0.47368 6.0106-5.8169 7.0347-4.9766 1.287 1.056 2.4222 0.64104 3.6759-1.3438 0.99763-1.5794 4.0814-3.9901 6.853-5.3571 5.5691-2.7469 17.913-3.4512 16.338-0.93228-0.53398 0.85424-2.2318 1.5532-3.7729 1.5532s-5.8059 1.5726-9.4773 3.4946c-5.5198 2.8897-8.1474 6.0487-15.18 18.25-12.234 21.226-20.273 38.339-22.616 48.148-1.1226 4.6983-4.4112 15.042-7.3081 22.986-2.8969 7.9441-5.267 16.282-5.267 18.528 0 4.4421-2.2935 12.489-5.6534 19.836-1.9791 4.3275-2.0684 4.3672-1.2533 0.55772zm1.5722-11.786c-0.52201-0.5161-0.89327 0.40125-0.82507 2.0385 0.0754 1.8094 0.44762 2.1774 0.94908 0.93837 0.45379-1.1212 0.39799-2.4608-0.12394-2.9769h-0.00007zm36.76-110c0-0.3767-0.7069-0.68491-1.5709-0.68491-0.86399 0-1.5709 0.74017-1.5709 1.6448 0 0.90465 0.70691 1.2129 1.5709 0.68491 0.864-0.52795 1.5709-1.2681 1.5709-1.6448zm-207.23 85.645c-0.06818-1.6373 0.30306-2.5546 0.82507-2.0385 0.52199 0.5161 0.57779 1.8557 0.12394 2.9769-0.50146 1.239-0.8737 0.87098-0.94908-0.93837h0.000062z"/>
      <path id="path4483" d="m71.805 135.92c18.254 38.64 15.932 55.485 24.125 89.861 30.345-8.2762 29.262-25.547 79.667-33.282-2.1891-8.0157-4.9541-20.206-7.0012-37.296-6.3307-52.851-105.7-29.051-96.79-19.284z"/>
      <path id="path4485" d="m44.034 193.06c14.225 0.12875 18.463 3.0784 22.441 6.1017 4.3286-5.7048 5.761-14.273 5.6104-24.407-10.615-29.47-18.709-62.68-26.368-96.528-15.8 19.933-20.203 53.578-1.683 114.83z"/>
      <path id="path4487" d="m219.92 176.41c-8.1536-6.3204-13.22-7.9818-19.362-21.901-6.181-14.007-18.885-10.87-32.814-24.693 3.0507-7.4765 6.1446-8.0831 10.66-8.3205l11.221-3.8829c-6.1576-21.923 1.4724-27.52 3.3662-38.829 8.8578 4.2865 12.16 14.702 12.904 18.86 2.702 24.981 2.0086 30.605 10.66 43.821-6.3111-2.6762-11.977-4.5545-12.391 0.0573 8.876 15.212 10.875 23.625 15.757 34.889z"/>
      <path id="path4489" d="m176.72 152.56c0.60054 2.9688 14.991 26.915 13.103 46.38-1.795 18.506 9.8994 34.052 9.8994 34.052 7.0877 3.0614 13.924 0.42886 21.49 12.325 2.1517 3.3832 2.7778 9.0655 7.6839 13.191 2.4741-17.611 4.2649-34.32-22.148-68.835-8.1652-10.67-19.026-23.041-33.395-37.667l3.3662 0.5547z"/>
      <path id="path4491" d="m169.43 228c-10.055 27.043-33.101 42.157-33.101 42.157-9.7499 44.91 15.739 42.683 29.174 56.579l10.66 0.5547-13.465-20.524c-2.5714-31.233 3.9454-47.489 10.099-64.345l19.075-3.8829c4.355 3.982 5.5021 15.694 11.711 24.009 4.553 6.0972 3.468 15.599 5.1203 23.695l8.9766 7.2111c2.1883 9.8429 5.6587 24.909 1.1221 28.844 34.844 3.8829 24.919 6.1017 22.441 9.9846 7.7392 56.876 64.332 107.45 103.23 160.31l-6.1714 4.4376c-74.44-42.81-146.74-88.78-238.45-105.95 4.1905-29.301-19.2-43.041-35.906-65.455-5.2253-14.792 0.27627-35.686 1.6831-50.478 12.548-19.397 32.975-31.003 51.054-44.931 11.225-4.2759 21.237-15.234 32.391-10.353 8.6574 3.7889 12.435 2.7725 20.346 8.1339z"/>
      <path id="path4493" d="m50.486 400.01s7.8545 9.9846 10.099 9.9846c2.2441 0 16.831-10.817 16.831-10.817 3.8645-1.421 4.0129-9.2238 3.3662-16.641-17.385-16.769-34.328-23.493-34.223-82.373-8.3068 23.216-22.849 46.649-5.0493 74.052l-10.099-8.3205 11.221 31.063 7.8545 3.0508z"/>
      <path id="path4495" d="m353.73 490.93c0.98954 13.184 6.2804 3.838 7.584 6.3314-1.7978-4.239-2.0338-3.8357-7.584-6.3314z"/>
    </g>
  </g>
  <metadata>
    <rdf:RDF>
      <cc:Work>
        <dc:format>image/svg+xml</dc:format>
        <dc:type rdf:resource="http://purl.org/dc/dcmitype/StillImage"/>
        <cc:license rdf:resource="http://creativecommons.org/licenses/publicdomain/"/>
        <dc:publisher>
          <cc:Agent rdf:about="http://openclipart.org/">
            <dc:title>Openclipart</dc:title>
          </cc:Agent>
        </dc:publisher>
        <dc:title>python</dc:title>
        <dc:date>2010-09-22T19:18:30</dc:date>
        <dc:description>python logo</dc:description>
        <dc:source>http://openclipart.org/detail/86317/python-by-asrafil</dc:source>
        <dc:creator>
          <cc:Agent>
            <dc:title>asrafil</dc:title>
          </cc:Agent>
        </dc:creator>
        <dc:subject>
          <rdf:Bag>
            <rdf:li>alphabet</rdf:li>
            <rdf:li>boa</rdf:li>
            <rdf:li>card</rdf:li>
            <rdf:li>carpet</rdf:li>
            <rdf:li>clip art</rdf:li>
            <rdf:li>clipart</rdf:li>
            <rdf:li>education</rdf:li>
            <rdf:li>fork</rdf:li>
            <rdf:li>pattern</rdf:li>
            <rdf:li>python</rdf:li>
            <rdf:li>pythonidae</rdf:li>
            <rdf:li>reptile</rdf:li>
            <rdf:li>reticulated</rdf:li>
            <rdf:li>snake</rdf:li>
            <rdf:li>tile</rdf:li>
            <rdf:li>tongue</rdf:li>
          </rdf:Bag>
        </dc:subject>
      </cc:Work>
      <cc:License rdf:about="http://creativecommons.org/licenses/publicdomain/">
        <cc:permits rdf:resource="http://creativecommons.org/ns#Reproduction"/>
        <cc:permits rdf:resource="http://creativecommons.org/ns#Distribution"/>
        <cc:permits rdf:resource="http://creativecommons.org/ns#DerivativeWorks"/>
      </cc:License>
    </rdf:RDF>
  </metadata>
</svg>
